<?xml version="1.0" encoding="utf-8"?>
<!-- Generator: Adobe Illustrator 22.1.0, SVG Export Plug-In . SVG Version: 6.00 Build 0)  -->
<svg version="1.1" id="Camada_1" xmlns="http://www.w3.org/2000/svg" xmlns:xlink="http://www.w3.org/1999/xlink" x="0px" y="0px"
	 viewBox="0 0 500 500" enable-background="new 0 0 500 500" xml:space="preserve">
<g>
	<g>
		<path fill="#070308" d="M68.53458,434.60556c0.87032,1.04175,6.39649,7.97012,7.57878,9.68652
			c7.14886,10.40195,20.89816,12.70477,29.81412,13.02005c5.48814,4.4646,16.20812,12.35425,37.45905,14.73538
			c5.64908,0.63055,11.53519,0.95023,17.49403,0.95023c42.0482,0,87.25414-18.38199,109.40955-28.75638
			c22.62061,13.52054,48.70099,26.90442,76.96573,27.33322c0,0,1.53946,0.01215,2.13861,0.01215
			c24.27911,0,37.53949-7.93484,42.92514-11.60025c5.6601-1.55322,15.37085-5.64633,22.2728-16.17944
			c1.81616-2.77094,3.07559-6.23761,3.80371-10.4393l7.43768-4.26852l-6.9201,0.08316
			c0.12842-1.53333,0.21552-3.12567,0.22928-4.82553c4.63602-5.82272,7.91391-14.56342,9.96652-21.47195
			c1.54166-5.18884,5.01743-18.42056,4.00876-29.23041c-1.18118-12.60559-4.50262-22.91714-9.87613-30.65466
			c-0.45691-0.65701-0.93149-1.29639-1.42093-1.91592c-3.81256-27.02014-13.74985-49.85242-21.58771-64.48416
			c-0.54071-1.00867-11.9006-22.09587-20.789-30.14096c-0.24472-0.54016-0.53851-1.13654-0.91772-1.79466
			c-2.52554-4.33891-6.49902-6.71562-10.2388-8.22366l2.9808-6.75752l-16.4231,1.38017
			c-0.63992-0.26678-1.33221-0.55229-2.08292-0.85985c-6.90967-3.00948-21.20682-9.16841-27.17175-11.67078
			c-2.20474-0.96568-4.24026-1.83876-6.09387-2.63246c-3.01224-1.29088-6.34799-2.71954-8.11124-3.61798
			c-2.32159-3.52426-5.44846-5.63641-8.37469-6.95264c-0.72592-1.49371-1.63593-2.8849-2.72119-4.15372
			c1.99307-3.99417,3.65793-8.396,4.88458-12.89944l5.30844,1.59795l-4.43701-5.19008
			c0.07687-0.35393,0.16068-0.70744,0.23206-1.06145c2.10773-1.3493,3.99057-3.13072,5.54654-5.28917
			c3.65768-5.08191,8.42267-19.405,9.40488-28.60205c1.44354-1.64034,2.59995-3.55128,3.39694-5.66177
			c0.99158-2.66331,1.32837-5.4501,1.05661-8.15697c8.60016-5.85193,13.69418-14.06623,14.03262-23.12495
			c0.47842-12.85528-6.87161-21.03044-11.26291-25.91504c-0.53409-0.59362-1.04779-1.16299-1.52182-1.7197
			c-0.84164-0.98992-1.64032-1.9297-2.44174-2.94883c-0.5159-1.13379-1.28867-4.32129-1.85971-6.67705
			c-0.99875-4.12121-2.24167-9.24998-4.28656-14.53143c-2.3949-6.19696-5.97208-14.06347-12.43802-19.94461
			c-6.88483-6.25484-16.30515-9.4258-27.99796-9.4258c-1.95505,0-3.95364,0.15102-5.98697,0.45583
			c-0.39905,0.06173-0.7485,0.09756-1.0412,0.10638c-0.88684-0.21606-3.16049-1.44465-4.99869-2.43789
			c-1.06158-0.57323-2.18765-1.18119-3.4686-1.84261c-3.952-2.04379-8.87021-4.58696-15.57262-7.34453
			c-6.65334-2.7471-14.59315-5.55484-23.03896-5.55484c-15.60237,0-26.717,8.16635-34.07201,13.57016l-1.38733,1.01583
			c-2.87498,2.09395-4.16144,2.29734-7.27122,2.78899c-0.35497,0.05512-1.04614,0.10252-1.71474,0.14772
			c-4.11569,0.28056-11.77661,0.80308-18.31476,7.7017c-6.84406,7.22051-8.58414,14.37654-8.68225,19.57366
			c-2.48088,3.1153-4.68341,6.75401-6.34468,10.76477l-13.3541-2.90598l11.09644,10.10438
			c-2.12068,9.82658-0.72536,21.12222,7.26848,32.28225c4.43042,6.18594,10.44495,10.79164,16.2682,14.14119
			c-0.6774,1.71198-1.08197,3.50663-1.2093,5.31727c-2.26205,4.44972-2.62749,9.724-0.80913,14.57773
			c0.78653,2.10277,1.94292,4.01373,3.39363,5.65681c0.99159,9.2406,5.74666,23.51848,9.401,28.59709
			c1.56537,2.17166,3.46254,3.9597,5.59232,5.31232c0.06725,0.33443,0.14772,0.6683,0.2202,1.00267l-7.79071,9.10605
			l9.26018-3.44484c1.23161,4.05183,2.8047,7.98329,4.64731,11.56158c-0.83449,1.0726-1.55104,2.22678-2.1441,3.44821
			c-2.97089,1.33606-6.14792,3.49229-8.47722,7.11137c-2.12978,1.10898-6.67264,2.97089-10.75471,4.64429l-1.65851,0.68016
			c-0.31749,0.13008-29.47955,12.53833-38.12708,16.616l-0.00937-0.02536l0.19235-0.07054
			c-0.29652,0.10141-0.76283,0.237-1.15638,0.35497l-0.11629,0.03526c-4.67239,1.38127-11.73306,3.46806-15.55553,10.03487
			c-0.39134,0.67906-0.69174,1.30411-0.92985,1.82994c-12.10732,10.90573-38.73393,50.76959-45.55098,98.8494
			c-5.08688,6.20193-8.64423,14.79709-10.59818,25.63339c-1.79796,9.96982-1.68497,18.69397-1.3741,21.91397
			C56.2823,419.33005,67.28284,433.11404,68.53458,434.60556z"/>
	</g>
	<path fill="#EAC6A1" d="M301.74319,1321.06238c3.44821,2.6947,8.47089,6.32471,13.05237,6.33325
		c0.68582,0.00122,1.00574-1.00134,0.36111-1.33325c-1.87195-0.96375-4.11206-1.28259-6.1152-1.96021
		c-2.50903-0.84863-4.91052-1.85181-7.24048-3.11462C301.75571,1320.96301,301.69882,1321.02771,301.74319,1321.06238
		L301.74319,1321.06238z"/>
</g>
<g>
	<g>
		<path fill="#C54748" d="M262.2952,233.88651c1.21902-2.91769,1.94507-6.17897,0.92078-8.92168
			c0.04526-0.09708,0.0647-0.149,0.11017-0.25275c5.76401-2.01665,13.55099-5.08345,18.97141-11.94319
			c1.0051-1.27095,3.06702-1.41353,4.27283-0.29825c0.05182,0.05182,0.10373,0.09731,0.15567,0.14902
			c1.41339,1.43292-0.06482,5.14822,0.59003,6.37369c0.65494,1.23189,8.64929,1.67935,9.36914,3.25485
			c0.74548,1.64041,0.67426,2.6778,0.40842,3.29369c-0.20105,0.46687-7.19696,10.5036-28.6907,15.71663
			c-3.49484,0.84944-4.99911,0.95319-7.41107,1.10219c-0.07135,0.00667-0.13602,0.05193-0.15543,0.11684
			c-3.5014,10.48418,11.94296,18.82239,11.80038,18.53711c-2.12659-4.37668-8.85043-11.995-6.61987-11.61244
			c2.159-0.2269,5.76401,1.05037,7.18396,2.20448c7.98801,6.4772,11.69034,14.8024,16.37158,16.69568
			c4.68134,1.88681-8.78555,4.11072-21.55209-0.24643c-15.85291-5.42041-20.11264-14.97748-21.64287-20.26817
			c-0.03239-0.09731,0.03239-0.18806,0.13625-0.20105c3.63075-0.52513,6.94408-2.33408,9.07068-6.08832
			c0.05847-0.09708,0.16222-0.88161,0.05847-0.81039c-5.73816,3.99402-13.96617,3.66327-19.72374,0.13626
			c-0.82991-0.50572-1.48463,0.23332-0.98547,1.05681c2.17863,3.65683,5.52425,5.51758,8.99303,5.78996
			c0.11671,0.01299,0.18805,0.12315,0.14256,0.2269c-2.71019,6.14658-9.64142,18.17409-25.85733,23.63988
			c-17.79141,6.00388-28.30812,2.70377-23.62677,0.81705c4.68124-1.89328,11.67081-15.23691,22.93311-21.02055
			c2.66483-1.36803,3.94852-1.16054,5.40086-1.95151c2.237-0.38257-4.48663,7.23576-6.61989,11.61235
			c-0.13612,0.28534,13.00002-8.16943,13.75215-18.4527c0.00644-0.09741-0.07133-0.17508-0.16209-0.18175
			c-2.37946-0.15556-3.85788-0.38232-7.35272-1.10219c-22.27817-4.56462-28.49596-15.24976-28.69711-15.71663
			c-0.26584-0.61589-0.33707-1.65327,0.41507-3.29369c0.71962-1.5755,8.70775-2.02296,9.36247-3.25485
			c0.65494-1.22546-0.82336-4.94077,0.59647-6.37369c0.0455-0.05171,0.09743-0.0972,0.14923-0.14902
			c1.21248-1.11528,3.26773-0.9727,4.27284,0.29825c5.42682,6.86618,13.22046,9.93321,18.97804,11.94962
			c0.11649,0.23988,0.17508,0.36948,0.29156,0.60292c-0.84277,2.67136-0.12959,5.7771,1.03761,8.56508
			c0.05182,0.12315-0.05193,0.25275-0.18173,0.22701c-1.20593-0.26584-2.4184-0.47331-3.63742-0.75858
			c-3.04071-0.7133-5.99091-1.69234-8.85677-2.94376c-0.11017-0.04526-0.26584,0.09731-0.149,0.19461
			c4.23389,3.35205,10.12105,7.65085,15.7943,7.43027c1.27095-0.0518-1.23187-11.28813,5.40742-11.02873
			c1.69234,0.06479,3.52092,0.06479,5.4984,0.12315c1.55608,0.03883,4.10417,0.02585,5.66026-0.01299
			c1.83492-0.04538,3.54666-0.07135,5.13525-0.11017c6.45778-0.14923,4.44136,10.97693,5.71873,11.02873
			c5.66684,0.22058,11.55399-4.07822,15.78787-7.43027c0.11673-0.09731-0.0325-0.23987-0.14923-0.19461
			c-2.86563,1.25142-5.80951,2.23045-8.85675,2.94376c-1.21249,0.28526-2.43149,0.49274-3.63089,0.75858
			C262.34711,234.13925,262.24338,234.00966,262.2952,233.88651z"/>
	</g>
	<g>
		<path fill="#EAC6A1" d="M250.91629,425.61819c1.76346,1.14746,1.42627,3.50116-0.32431,4.66171
			c-19.82736,13.1297-60.38991,25.96762-99.38982,21.75958c-25.43583-2.74271-37.30103-14.38101-37.41763-14.46533
			c-0.60313-0.43448-1.33585-0.64841-2.08133-0.60947c-5.39466,0.29825-15.47688,2.24356-18.82903-2.63242
			c-0.27882-0.40842-0.56408-0.9726-0.84922-1.65338c-2.85954-6.89871,2.91113-17.07169,7.98148-22.55045
			c10.387-11.24286,26.09066-22.9137,46.68303-25.39697C199.04608,378.40991,250.9032,425.61154,250.91629,425.61819z"/>
	</g>
	<g>
		<path fill="#EAC6A1" d="M351.90103,342.91119c0.20724,1.0762,0.49918,3.52713,0.22034,5.02496
			c-0.80405,4.37646-4.34406,8.89557-10.25729,13.1489c-3.37799-0.99179-7.65085-1.95151-10.71118-2.69055L351.90103,342.91119z"/>
	</g>
	<g>
		<path fill="#EAC6A1" d="M350.06613,327.46027c0.68079,1.93222,1.15411,7.02197-0.33731,10.1731
			c-0.02585,0.05826-0.03894,0.11682-0.06479,0.18152c0,0-24.54111,18.98447-24.67072,19.12061
			c-2.49628-0.4863-5.98447-1.14114-7.92322-1.41983c4.61658-5.00555,9.88773-14.91925,24.94965-22.47266
			C344.43814,331.83029,347.14835,329.40558,350.06613,327.46027z"/>
	</g>
	<g>
		<path fill="#EAC6A1" d="M334.50491,320.21783c2.37314,1.73117,3.02155,7.99445,0.83649,10.5491
			c-5.55655,3.83856-10.52316,8.21503-14.54312,12.1571c-6.46445,6.34131-10.48419,11.58005-10.55554,11.74207
			c-1.69888,0.12979-6.33475,1.30975-8.15668,1.75079c0,0,7.82605-14.41342,11.12616-18.15457
			c2.55466-2.89169,9.67383-7.99457,15.02298-11.66437C331.89203,324.10168,334.50491,320.21783,334.50491,320.21783z"/>
	</g>
	<g>
		<path fill="#EAC6A1" d="M398.69424,417.68854c1.35526,5.52402,2.80762,12.7536,0.2139,15.99545
			c-5.93896,7.41742-14.74393,6.76245-15.07455,6.80795c-0.59647,0.07123-1.18018,0.32419-1.64685,0.69379
			c-3.55307,2.80737-13.7457,10.75647-35.1033,10.43881c-30.15591-0.46033-58.98926-16.59836-83.21906-32.328
			c-22.43405-14.56906-57.45282-37.29468-95.28564-41.48975c7.39156-3.74759,19.54868-10.3222,33.70911-10.9057
			c1.38744-0.01941,34.98648,0.01953,55.07959,1.29037c28.23688,1.78952,36.17953-6.31522,52.22681-5.99115
			c29.83203,0.60315,48.79709,12.83792,53.65329,15.56122C372.48685,382.94849,392.85901,393.91898,398.69424,417.68854z"/>
	</g>
	<path fill="#EAC6A1" d="M195.05208,131.93571c-0.03906-0.23999-1.32932-5.88073-1.6534-5.72506l-8.96693,4.22089
		c-0.15567,0.07767-0.11684,0.31122,0.05824,0.31766l3.9615,0.24629c0.3567,0.02609,0.51237,0.44748,0.24631,0.68082
		l-6.63287,5.76401c-0.32419,0.28548-0.01297,0.7912,0.40221,0.66138l9.23277-2.94353
		c0.24632-0.07777,0.50572,0.08432,0.53157,0.33064l0.29846,2.61955c-0.08432,0.01941-0.16866,0.03217-0.24654,0.05179
		c-2.1915,0.58994-3.5856,1.85445-4.47365,3.33897c-1.00511,1.686-1.36171,3.66348-1.5369,5.29089
		c-0.31766,3.06682,4.13037,18.21295,6.25708,21.1629c0.42783,0.60312,2.01619,2.38623,3.35837-1.88017
		c0.01941-0.05824,0-0.12317-0.03883-0.16864c-5.80307-6.02342-0.01299-8.77245-0.19449-12.21536
		c-0.18806-3.51427-4.75247-9.09021-6.0688-10.97061c-0.10373-0.14256-0.08432-0.30457,0-0.42783
		c0.08432-0.12315,0.25275-0.20103,0.43437-0.1622l6.26341,1.9129c0.27881,0.06467,0.53822-0.16232,0.49916-0.43448
		L195.05208,131.93571z"/>
	<path fill="#EAC6A1" d="M307.89545,137.44032l-6.63284-5.76401c-0.26575-0.23334-0.11017-0.65472,0.25284-0.68082l3.95529-0.24629
		c0.17499-0.00644,0.22025-0.23999,0.0647-0.31766l-8.97339-4.22089c-0.32431-0.15567-1.61465,5.48507-1.6535,5.72506
		l-1.72449,11.67082c-0.03906,0.27216,0.2139,0.49915,0.49274,0.43448l6.45776-2.50284
		c0.03241-0.00655,0.0647-0.01299,0.09708-0.01299c0.31134,0,0.52524,0.33708,0.3374,0.60292
		c-1.31644,1.88039-6.06888,8.04637-6.25696,11.56064c-0.18805,3.44292,5.60193,6.19194-0.19449,12.21536
		c-0.0455,0.04547-0.05847,0.1104-0.03885,0.16864c1.33554,4.2664,2.92413,2.48329,3.35861,1.88017
		c2.12015-2.94995,6.5744-18.09608,6.25031-21.1629c-0.20117-1.9192-0.66782-4.31175-2.13315-6.15309
		c-0.8754-1.10229-2.11383-2.00345-3.87741-2.47678c-0.07776-0.01962-0.16208-0.03238-0.2464-0.05179l0.29846-2.61955
		c0.03229-0.24632,0.29169-0.40842,0.53799-0.33064l9.22635,2.94353C307.90857,138.23152,308.2262,137.7258,307.89545,137.44032z"/>
	<g>
		<path fill="#EAC6A1" d="M266.69772,136.31873c-4.69434-0.27228-7.93619,2.76201-9.43405,4.57117
			c-0.25916,0.31766-0.7843,0.07765-0.71307-0.32431c1.7507-10.28326,7.99457-12.1377,13.13605-9.50516
			c2.98901,1.52368,7.50836,5.24542,9.93976,7.3201c0.33707,0.29179,0.8493-0.08432,0.63541-0.47333
			c-1.87384-3.40385-5.82248-10.25085-8.05283-11.83934c-4.62952-3.30679-7.50183-2.17852-10.01752-1.77654
			c-8.87619,1.40053-10.45836,15.91779-10.59438,17.32465c0.01286,0.07133,0.01941,0.14256,0.03229,0.21391
			c2.81393,7.49539,1.93221,14.11517,1.05692,17.65527c-0.14923,0.60945,0.64839,0.96628,1.01797,0.46045
			c2.81395-3.83846,4.24687-8.13071,4.05879-11.30124c0.03241,0.01952,0.0455,0.05836,0.07767,0.07777
			c3.70877,2.10075,7.61856,3.0992,11.84592,3.31334c0.33063,0.01276,0.4216-0.4539,0.10373-0.55765
			c-2.14603-0.65494-4.20148-1.54311-6.17242-2.58061c-0.50571-0.27226-0.32431-1.04384,0.25287-1.05679
			c5.67978-0.14923,14.51059-0.81039,17.01331-0.99847c0.17499-0.01308,0.21402-0.25938,0.04538-0.3243
			c-3.25485-1.2513-9.3689-1.80251-11.04816-1.99057c-0.3049-0.03229-0.35016-0.31764-0.26605-0.60933
			c0.42139-1.40042,6.65894-0.78455,9.66104-0.62888c0.11652,0.0063-1.08942-0.81705-1.67291-1.11528
			c0-0.00644-0.00644-0.00644-0.01309-0.01299c-1.21237-0.8429-2.43137-1.68579-3.66315-2.49617
			c0-0.00665-0.00665-0.00665-0.00665-0.00665C271.98843,138.09526,269.37552,136.47427,266.69772,136.31873z M233.45551,140.56558
			c0.06468,0.40196-0.4539,0.64197-0.71985,0.32431c-1.49773-1.80916-4.73305-4.84344-9.43393-4.57117
			c-0.13614,0.00655-0.27882,0.03239-0.41473,0.04538c-0.14923-0.04538-0.31789-0.04538-0.51237,0.02585
			c-0.08432,0.0325-0.16853,0.0649-0.2594,0.09741c-1.79585,0.38254-3.52713,1.32275-4.98602,2.37314
			c-1.65329,0.95294-3.22879,2.04214-4.72008,3.23532c-0.01299,0.00644-0.01941,0.01286-0.03239,0.01941
			c-0.77821,0.36958-1.5562,0.77798-2.32776,1.21892c-0.1297,0.07123,5.31677-0.70033,7.94908-0.38257
			c1.21902,0.14923,2.19804,0.68735,2.386,0.96617c0.16864,0.25285,0.04538,0.57704-0.26584,0.60933
			c-1.6727,0.18163-7.35893,1.05693-10.56851,2.34729c-0.16843,0.06467-0.12959,0.3111,0.05193,0.31764
			c2.48318,0.12328,10.91223,0.51859,16.52713,0.64841c0.57706,0.01295,0.75858,0.78453,0.25275,1.05679
			c-1.97093,1.03751-4.01997,1.92567-6.16599,2.58061c-0.31766,0.0972-0.2269,0.5704,0.10385,0.55765
			c4.04582-0.2075,7.81282-1.12827,11.37891-3.05392c0.23332-0.12959,0.52512-0.01942,0.58371,0.22688
			c0.41473,1.65994,1.86708,7.19693,4.42172,11.10031c0.25298,0.38245,0.86885,0.14268,0.7457-0.29846
			c-0.60313-2.24332-1.30334-6.04271-0.83646-10.65927c0.07135-0.75203,0.18152-1.52359,0.32431-2.32098
			c0.13603-0.75214,0.30467-1.53035,0.51859-2.31488c0.24631-0.94662,0.55121-1.90625,0.92078-2.88527
			c0.00644-0.07135,0.01942-0.14258,0.02586-0.21391c-0.12959-1.40686-1.71819-15.92413-10.59438-17.32465
			c-2.51581-0.40198-5.38167-1.53024-10.01753,1.77654c-2.22391,1.58849-6.17265,8.43549-8.04639,11.83934
			c-0.21391,0.38901,0.29181,0.76512,0.62888,0.47333c2.43149-2.07468,6.95717-5.79642,9.93964-7.3201
			C225.46094,128.42789,231.69827,130.28232,233.45551,140.56558z M244.82143,168.94505v0.00655
			c-0.00644,0-0.01941-0.00655-0.02585-0.00655c-0.01309,0-0.03252,0-0.03252,0c-1.23843-0.11684-3.63741-0.53822-6.06879-2.13957
			c-3.48819-2.30193-5.49173,0.30467-7.17752-0.92079c-0.57706-0.42139-0.86887-0.8947-0.98558-1.38113
			c-0.00644-0.02571-0.00644-0.05179,0-0.07764c0.16864-1.06979,0.67436-2.0425,1.54321-2.80763
			c1.01132-0.8947,0.30467-2.4702-1.07001-2.34705c-4.36992,0.39554-8.6362,2.30179-12.52003,4.35704
			c-0.55763,0.29192-0.33707,1.14113,0.29192,1.11528c6.12704-0.2594,8.36403,2.58061,8.99933,3.69579
			c0.12959,0.22046,0.01311,0.50571-0.23997,0.57704c-6.81427,2.05537-12.44226-0.19449-14.15401-1.01797
			c-0.25941-0.12315-0.57706,0.01942-0.60957,0.29825c-0.7325,7.60558,4.90193,23.89915,12.68236,31.12216
			c0.35005,0.3241,0.89471-0.09741,0.63553-0.4863c-2.25641-3.3911-6.0041-10.34161-7.19716-20.547
			c-0.03883-0.32431,0.33073-0.55763,0.62254-0.38899c0.74547,0.42783,1.77643,0.8623,2.66481,1.01787
			c0.17508,0.02585,0.3242,0.12959,0.40198,0.29169c3.5531,7.29424,13.11673,11.11972,22.21349,11.11972
			c0.06468,0,0.12959-0.00644,0.19449-0.00644v-0.00655c0,0,0,0,0.00644,0v0.00655c0,0,0,0,0.00655,0h0.00644v-0.00655
			c0,0,0,0,0.00644,0v0.00655c0.0649,0,0.1297,0.00644,0.19449,0.00644c9.09665,0,18.6604-3.82549,22.20706-11.11972
			c0.07764-0.16209,0.22687-0.26584,0.40198-0.29169c0.89468-0.15556,1.91898-0.59004,2.6647-1.01787
			c0.29834-0.16864,0.66147,0.06468,0.62897,0.38899c-1.06335,9.09676-4.15622,15.60634-6.41895,19.31511
			c-0.35648,0.5835,0.43448,1.17354,0.90137,0.6808c7.23578-7.65096,12.33197-22.82938,11.63165-30.08478
			c-0.02576-0.27882-0.34351-0.4214-0.60281-0.29825c-1.71173,0.82349-7.34616,3.07335-14.16055,1.01797
			c-0.24631-0.07133-0.36313-0.35658-0.23999-0.57704c0.64197-1.11517,2.87875-3.95518,9.0061-3.69579
			c0.62234,0.02585,0.8428-0.82336,0.2916-1.11528c-3.89017-2.05525-8.15656-3.9615-12.52005-4.35704
			c-1.37466-0.12315-2.08786,1.45235-1.06976,2.34705c0.86862,0.76514,1.36801,1.73784,1.53644,2.80763
			c0.00665,0.02585,0.00665,0.05193,0,0.07764c-0.11649,0.48643-0.40842,0.95975-0.98547,1.38113
			c-1.68567,1.22546-3.68922-1.38113-7.17108,0.92079c-2.43138,1.60135-4.83037,2.02274-6.07523,2.13957c0,0-0.01942,0-0.02597,0
			c-0.01286,0-0.02585,0.00655-0.03229,0.00655v-0.00655c-0.05193-0.00644-0.11682-0.01299-0.17508-0.01941
			C244.93814,168.93207,244.8799,168.93861,244.82143,168.94505z M245.00305,220.4782c-0.05847,0-0.12315,0.00632-0.18163,0.00632
			v0.00644c-0.00644,0-0.01941,0-0.02585,0c-0.01309,0-0.01941,0-0.03252,0v-0.00644
			c-5.16742-0.09731-10.80206-1.93198-13.24631-3.35216c-8.44193-4.92111-17.76558-19.23721-21.00101-26.63519
			c-0.23334-0.52525-1.05681-0.28526-0.95308,0.27238c0.82991,4.35049,2.26939,8.80495,4.40897,12.87019
			c0.08434,0.16864-0.11671,0.33063-0.25296,0.20747c-1.5755-1.38744-3.16388-3.01488-4.6423-4.90814
			c-4.49973-5.78996-8.49362-16.48831-8.81793-25.77312c-0.49274-14.1864,1.26428-41.36638,1.26428-41.36638
			s0.29181-3.78653,0.41507-3.85133c2.89172-1.47842,4.72662-2.48973,9.66737-3.70232
			c8.24089-5.99757,14.83492-6.53558,20.09966-3.56618c4.70065-0.48608,6.94397-0.45368,13.05824-0.46666v-0.00666
			c0.01311,0,0.01942,0.00666,0.03252,0.00666c0.00644,0,0.01941-0.00666,0.02585-0.00666v0.00666c0.06491,0,0.12315,0,0.18163,0
			c0.05826,0,0.11661,0,0.17508,0v-0.00666c0.01276,0,0.01942,0.00666,0.03229,0.00666c0.00655,0,0.01953-0.00666,0.02597-0.00666
			v0.00666c4.21446,0.00643,8.05946,0.149,11.58649,0.40198c11.65128-5.71875,20.78055,3.33917,21.39642,3.51426
			c4.32465,1.25762,7.50818,2.62587,9.84247,3.81892c0.12958,0.0648,0.20093,0.18807,0.20749,0.33064l0.2139,3.52069
			c0,0,1.7507,27.17998,1.25797,41.36638c-0.31775,9.28481-4.31189,19.98315-8.81793,25.77312
			c-1.47842,1.89326-3.06036,3.52071-4.64252,4.90814c-0.13602,0.12315-0.33719-0.03883-0.25287-0.20093
			c1.88028-3.57274,3.22247-7.44348,4.07834-11.27541c0.17508-0.78453-0.93365-1.14745-1.25784-0.41495
			c-3.22888,7.37213-8.10474,17.79808-20.3656,25.17642c-2.4053,1.44603-8.07224,3.25485-13.24631,3.35216v0.00644
			c-0.00644,0-0.01942,0-0.02597,0c-0.01286,0-0.01953,0-0.03229,0v-0.00644
			C245.11966,220.48451,245.06131,220.4782,245.00305,220.4782z M251.25336,198.50459
			c4.23389-1.85434,7.12561-5.78998,6.80795-5.67337c-1.65982,0.57704-5.40741,1.82848-7.1711,2.13315
			c-0.03882,0.00665-0.07765-0.00644-0.11017,0.00665c-0.03239,0.01276-0.07123,0.02574-0.09731,0.03241
			c-6.32808,1.0437-13.11018,0.3111-18.72507-2.53513c-0.06491-0.0325-0.11684,0.03883-0.07135,0.09065
			c1.96451,2.40541,4.16266,4.90813,6.85344,6.01042c0.85588,0.35672,1.54311,0.99202,2.07468,1.72473
			c1.30334,1.82191,2.81393,3.26129,4.20149,3.26129c1.50415,0,3.08632-1.63385,4.43492-3.61787
			C249.88535,199.29567,250.52707,198.82236,251.25336,198.50459z"/>
	</g>
	<path fill="#CC9670" d="M218.48434,163.62828c0,0-2.61188,1.41138-3.90855,2.70805
		c-0.78815,0.78836-1.28133,1.33923-1.54932,1.65271c0.1095-0.04164,0.2374-0.04672,0.35513,0.00937
		c1.71175,0.82349,7.33974,3.07335,14.15422,1.01797c0.25287-0.07133,0.36935-0.35658,0.23976-0.57704
		c-0.6353-1.11517-2.87228-3.95518-8.99933-3.69579C218.14728,164.76941,217.92671,163.9202,218.48434,163.62828z
		 M280.46185,146.87357l0.03329,0.00081l-0.01468-0.00215C280.47424,146.87256,280.46805,146.87312,280.46185,146.87357z
		 M250.99294,124.51604c2.89252-2.49345,5.82677-3.90098,5.82677-3.90098l-0.0079-0.00056
		c-3.52396-0.25263-7.36513-0.39498-11.57541-0.40141v-0.00666c-0.00644,0-0.01942,0.00666-0.02585,0.00666
		c-0.01299,0-0.01942-0.00666-0.03241-0.00666v0.00666h-0.3567v-0.00666c-0.00644,0-0.01941,0.00666-0.02608,0.00666
		c-0.01286,0-0.01918-0.00666-0.03229-0.00666v0.00666c-4.07144,0.00858-6.42708-0.00203-8.9342,0.13297
		c-1.34047,0.08173-2.6875,0.18748-4.02301,0.32375c-0.03444,0.00361-0.06638,0.00655-0.10103,0.00993l-0.00056-0.00011
		l-0.00261,0.00011c0,0,3.36719,1.25446,6.53998,4.26854C240.40286,127.00162,247.8591,127.21767,250.99294,124.51604z
		 M213.65579,151.21458c0.32928-0.03622,0.56329-0.06107,0.64975-0.06107
		C214.53593,151.15352,214.26773,151.08884,213.65579,151.21458z M271.22995,164.74356
		c-6.12735-0.2594-8.36414,2.58061-9.0061,3.69579c-0.12314,0.22046-0.00632,0.50571,0.23978,0.57704
		c6.81461,2.05537,12.44904-0.19449,14.16077-1.01797c0.10669-0.05067,0.22012-0.04706,0.3223-0.01682
		c-0.26947-0.31448-0.76016-0.8623-1.54312-1.64526c-1.15659-1.15648-3.35406-2.40135-3.81668-2.65759
		C272.04248,164.00407,271.8226,164.76817,271.22995,164.74356z M289.77374,163.10417l0.01974-0.08218
		c-0.01941-1.30437-0.04614-2.63287-0.07922-3.97144l-0.29147-8.64716c0.00623,0.04393,0.00903,0.07961,0.01422,0.12183
		c-0.0737-1.86844-0.15262-3.68608-0.23254-5.4099c-0.11411-2.32866-0.23038-4.62706-0.33389-6.64427
		c-0.21832-4.04482-0.38742-6.67148-0.38742-6.67148l-0.10172-1.67494c-0.08069-0.89313-0.17868-1.85591-0.24652-2.11012
		c-0.02472-0.02201-0.04153-0.05045-0.07336-0.06626c-2.1037-1.07543-4.90689-2.29242-8.60483-3.44337
		c-0.32419-0.08511-0.65878-0.17101-1.01346-0.25816c0,0,3.29346,5.18628,1.90445,13.82495
		c0.00699,0.03105,0.01376,0.05713,0.021,0.08771c-0.02563-0.04289-0.04031-0.06772-0.05948-0.0999
		c0.0325,0.32443-0.39035,0.57423-0.68283,0.32104c-2.4314-2.07468-6.95074-5.79642-9.93954-7.3201
		c-5.14169-2.63254-11.38556-0.77811-13.13626,9.50516c-0.07123,0.40196,0.45392,0.64197,0.71307,0.32431
		c1.49786-1.80916,4.73972-4.84344,9.43405-4.57117c2.6778,0.15555,5.29071,1.77654,7.22281,3.33907c0,0,0.00665,0,0.00665,0.00665
		c1.23178,0.81038,2.45078,1.65327,3.66315,2.49617c0.00665,0.00655,0.01309,0.00655,0.01309,0.01299
		c0.35355,0.18062,0.93219,0.55244,1.31012,0.81738c1.89542,0.35434,3.7258,0.75529,5.09259,1.08446
		c5.83533,1.40483-0.9726,3.51201-0.9726,3.51201c11.23846,7.83461-3.89502,3.92865-6.64438,3.62714
		c1.54175,0.31676,6.77948,3.12697,8.83261,6.74689c1.80521,3.18317,2.12332,5.8157,1.76016,7.90404
		c-0.51395,1.64774-1.13831,3.0923-1.9006,4.13454c-0.30444,0.37749-0.60764,0.69762-0.88535,0.96245
		c-1.69571,1.42288-3.95279,1.03705-6.96677-2.63976c0.30005,3.17854-0.50537,7.86565-2.11237,12.774
		c-0.00418,0.01276-0.00882,0.02586-0.01321,0.0386c-0.1105,0.33752-0.22473,0.67584-0.34283,1.01494
		c-0.01105,0.03149-0.02289,0.06332-0.03409,0.09471c-0.11252,0.32115-0.22733,0.64262-0.34631,0.96423
		c-0.00958,0.02585-0.01987,0.0517-0.02945,0.07756c-0.12158,0.32724-0.24597,0.65483-0.37399,0.98184
		c-0.01254,0.03206-0.02597,0.06389-0.0386,0.09595c-0.12643,0.32104-0.25476,0.64197-0.38742,0.96222
		c-0.01602,0.03894-0.03308,0.07732-0.04919,0.11615c-0.13028,0.31247-0.26202,0.62457-0.39783,0.93568
		c-0.03409,0.07767-0.06985,0.15477-0.10419,0.23232c-0.12,0.27182-0.24033,0.54341-0.36472,0.81342
		c-0.04187,0.09111-0.08591,0.18108-0.12836,0.27196c-0.1192,0.25545-0.23816,0.51079-0.36121,0.76398
		c-0.04718,0.09753-0.09674,0.19348-0.14438,0.29068c-0.12057,0.24495-0.241,0.48991-0.36472,0.73227
		c-0.05307,0.10352-0.10815,0.20511-0.16165,0.30806c-0.12158,0.23412-0.24258,0.46846-0.36722,0.69965
		c-0.05283,0.09808-0.10791,0.19382-0.16141,0.29156c-0.12781,0.23334-0.25513,0.46735-0.38596,0.69751
		c-0.05634,0.09911-0.11481,0.1954-0.17169,0.29382c-0.13016,0.22554-0.25998,0.4512-0.39319,0.67302
		c-0.06671,0.11107-0.13556,0.2191-0.20306,0.32925c-0.12598,0.20544-0.25095,0.41216-0.37939,0.61409
		c-0.0737,0.11617-0.14981,0.22859-0.22452,0.34351c-0.12396,0.19145-0.24734,0.38437-0.37375,0.57187
		c-0.08276,0.12305-0.16763,0.24112-0.25119,0.36235c-0.12109,0.17542-0.24109,0.35287-0.36392,0.52457
		c-0.07788,0.10893-0.15781,0.21312-0.2366,0.32048c-0.13062,0.17824-0.26053,0.35873-0.39316,0.53258
		c-0.12961,0.17009-0.26178,0.33368-0.39319,0.49916c-0.08386,0.10553-0.16626,0.21471-0.25092,0.31833
		c-0.17386,0.21346-0.35016,0.41934-0.52707,0.62424c-0.04401,0.05115-0.08704,0.10498-0.13138,0.15544
		c-0.22171,0.25342-0.44568,0.49974-0.67154,0.73871c-0.46689,0.49274-1.25784-0.09731-0.90137-0.6808
		c0.13602-0.22272,0.27496-0.45671,0.4162-0.69942c0.05249-0.09021,0.10632-0.1875,0.15927-0.28006
		c0.08929-0.1568,0.17868-0.31268,0.26956-0.47704c0.0683-0.12338,0.1376-0.25423,0.20657-0.382
		c0.07666-0.14223,0.15341-0.28345,0.23074-0.43109c0.07788-0.14879,0.15643-0.30423,0.23489-0.45842
		c0.06931-0.13602,0.1384-0.27126,0.20795-0.41145c0.08511-0.17159,0.17023-0.34949,0.25555-0.52739
		c0.06265-0.13116,0.12564-0.26212,0.18851-0.39679c0.09076-0.19449,0.1814-0.39441,0.27216-0.59601
		c0.05658-0.12587,0.11301-0.25218,0.1691-0.38065c0.09573-0.21832,0.19067-0.44104,0.28583-0.66736
		c0.05002-0.11943,0.09991-0.24033,0.14981-0.36191c0.099-0.24179,0.1973-0.48743,0.29507-0.73792
		c0.04401-0.11345,0.08792-0.22881,0.13196-0.34419c0.10114-0.26593,0.20172-0.53516,0.30081-0.8107
		c0.03726-0.10318,0.07373-0.20895,0.11063-0.31371c0.1041-0.29541,0.20749-0.59387,0.30841-0.90001
		c0.02765-0.08388,0.05475-0.17046,0.08218-0.25534c0.10733-0.33142,0.2139-0.66658,0.31708-1.0103
		c0.01556-0.0517,0.03024-0.10555,0.04559-0.15747c0.61014-2.05605,1.1391-4.32521,1.52008-6.80693
		c0.07867-0.6107,0.1568-1.24567,0.23434-1.90897c0.01038-0.08759-0.01038-0.16728-0.0499-0.2356l-0.5592-0.15001
		c-0.00543,0.00316-0.01242,0.00644-0.01807,0.0096c-0.09753,0.27419-3.48831,9.64232-12.50061,14.71153
		c-0.05588,0.0683-0.11392,0.13635-0.17023,0.20444c0.09482-0.03262,0.18829-0.0648,0.27283-0.09427
		c0.0184-0.00665,0.02347,0.00316,0.02066,0.02225c-0.00079,0.0062-0.00623,0.01761-0.00925,0.02641
		c-0.00644,0.01805-0.01526,0.03883-0.03061,0.06705c-0.00925,0.01727-0.02112,0.0369-0.03363,0.05791
		c-0.01749,0.0289-0.03793,0.06073-0.06152,0.09618c-0.01987,0.03003-0.03986,0.05972-0.06433,0.09415
		c-0.02304,0.03262-0.05023,0.06909-0.07733,0.10555c-0.1366,0.18524-0.32104,0.41496-0.55255,0.68124
		c-0.0051,0.00554-0.00928,0.01073-0.01425,0.01637c-0.07935,0.09109-0.1658,0.18625-0.25555,0.28447
		c-0.01773,0.01941-0.03488,0.03825-0.05316,0.05789c-0.09235,0.09991-0.18942,0.2023-0.29156,0.30785
		c-0.01447,0.01479-0.02902,0.0298-0.0437,0.04469c-0.45685,0.46881-1.00668,0.98242-1.63782,1.49773
		c-0.00565,0.00462-0.01083,0.00903-0.01625,0.01366c-0.14302,0.11661-0.29102,0.23198-0.44205,0.34769
		c-0.03342,0.02573-0.06694,0.05136-0.10069,0.07675c-0.14561,0.11018-0.29395,0.21877-0.44633,0.32692
		c-0.0385,0.02719-0.07767,0.05383-0.11661,0.08093c-0.15703,0.1095-0.3154,0.21786-0.47929,0.32408h-0.00035
		c-0.67244,0.48573-1.37344,0.90453-2.11542,1.2084c-0.72165,0.30084-1.31667,0.80519-1.80646,1.39365
		c-0.00418,0.00598-0.00824,0.01163-0.01242,0.01762c-0.0797,0.11671-0.1604,0.23276-0.24179,0.34665
		c-0.00316,0.00464-0.00655,0.00903-0.0097,0.01367c-0.08275,0.11581-0.16628,0.22993-0.25026,0.34213
		c-0.00192,0.00261-0.00395,0.00496-0.00575,0.0078c-0.08534,0.11333-0.17114,0.22508-0.2576,0.33447
		c-0.00677,0.00868-0.01367,0.01671-0.02022,0.02504c-0.0824,0.10342-0.16469,0.20535-0.248,0.30446
		c-0.00835,0.01006-0.01704,0.01942-0.02539,0.02946c-0.08173,0.09674-0.16368,0.19189-0.24597,0.28401
		c-0.01208,0.01343-0.02405,0.02585-0.03624,0.03905c-0.07913,0.08749-0.15849,0.17407-0.2384,0.25682
		c-0.01727,0.01807-0.03465,0.03441-0.05193,0.05203c-0.07484,0.07654-0.1498,0.15239-0.2251,0.22453
		c-0.02382,0.02269-0.04785,0.04333-0.07167,0.06569c-0.06932,0.06467-0.13863,0.12949-0.20816,0.18987
		c-0.02777,0.02428-0.05611,0.04594-0.08388,0.06955c-0.06592,0.05565-0.13184,0.11174-0.19788,0.16322
		c-0.03329,0.02608-0.06648,0.04854-0.09979,0.07349c-0.06084,0.04549-0.1218,0.09222-0.18309,0.13399
		c-0.03906,0.02687-0.0779,0.04977-0.11694,0.07495c-0.05588,0.03613-0.11153,0.07372-0.1674,0.10657
		c-0.04369,0.02539-0.08716,0.04651-0.13084,0.0701c-0.05113,0.02765-0.10237,0.05734-0.1534,0.08195
		c-0.04866,0.02359-0.09743,0.04187-0.14584,0.06265c-0.04651,0.01987-0.09291,0.0421-0.13942,0.05948
		c-0.05305,0.01964-0.10611,0.03387-0.15927,0.05011c-0.04166,0.01277-0.08353,0.02869-0.12495,0.03929
		c-0.06288,0.01602-0.12553,0.02563-0.18852,0.03658c-0.0316,0.00542-0.06345,0.01424-0.09528,0.01852
		c-0.09436,0.01219-0.18828,0.01862-0.2822,0.01862c-1.21484,0-2.52417-1.10365-3.70595-2.60126
		c-0.16785-0.21278-0.33333-0.43347-0.49532-0.66003c-0.5318-0.73271-1.21925-1.36801-2.07491-1.72473
		c-0.33266-0.13625-0.65776-0.29474-0.97586-0.47095c-0.11458-0.06343-0.22397-0.14076-0.33673-0.20894
		c-0.19992-0.1209-0.40152-0.23807-0.59602-0.37274c-0.13828-0.0955-0.2708-0.20409-0.40649-0.3058
		c-0.16243-0.12202-0.32701-0.23898-0.48584-0.36923c-0.15047-0.12315-0.29564-0.25737-0.44307-0.38707
		c-0.13748-0.12102-0.27701-0.2374-0.41179-0.3636c-0.16165-0.15126-0.31833-0.31065-0.47659-0.46812
		c-0.11412-0.11378-0.23029-0.22372-0.34271-0.34012c-0.17667-0.18298-0.34869-0.37195-0.52129-0.56035
		c-0.08783-0.09595-0.17712-0.18953-0.26381-0.28671c-0.1989-0.22227-0.3934-0.44803-0.5871-0.67436
		c-0.05453-0.06389-0.11041-0.12677-0.16481-0.19089c-0.23943-0.28278-0.47502-0.56599-0.70711-0.84944
		c-9.14597-5.14462-12.50523-14.72395-12.50523-14.72395v-0.00056l-0.57266,0.1534
		c-0.01862,0.03241-0.03239,0.06786-0.04143,0.10522c-0.00056,0.00214-0.0018,0.00395-0.00226,0.00621
		c-0.00858,0.03917-0.0114,0.0807-0.0062,0.12416c1.19316,10.20538,4.94075,17.1559,7.19716,20.547
		c0.25919,0.38889-0.28548,0.81039-0.63553,0.4863c-0.24315-0.22575-0.48415-0.46033-0.7229-0.70325
		c-0.47772-0.48573-0.94641-1.00465-1.40527-1.5527c-1.55992-1.86324-3.00369-4.06265-4.29359-6.42415
		c-0.05634-0.10295-0.11278-0.20557-0.16866-0.30907c-1.23302-2.29526-2.3177-4.73566-3.22099-7.16953
		c-0.0517-0.13918-0.10498-0.27824-0.15544-0.41721c-1.57933-4.35445-2.56299-8.65324-2.74574-12.02133
		c-0.01863-0.3427-0.03162-0.67874-0.03342-1.00127c-0.00294-0.539,0.01805-1.0481,0.06389-1.52367
		c-2.81879,3.44957-4.97643,4.02426-6.63309,2.93314c-0.50934-0.44826-1.16473-1.12206-1.75081-2.02116
		c-0.45628-0.79402-0.85667-1.73885-1.20853-2.7803c-0.52626-2.17107-0.32816-4.99066,1.64323-8.46686
		c2.05322-3.61992,7.29108-6.43013,8.83272-6.74689c-2.74925,0.30151-17.88286,4.20747-6.64449-3.62714
		c0,0-6.80795-2.10718-0.97249-3.51201c1.1978-0.2883,2.75197-0.63214,4.39362-0.95125
		c0.64592-0.35909,1.29454-0.70045,1.94406-1.00896c0.01321-0.00655,0.01964-0.01297,0.03262-0.01941
		c1.49129-1.19318,3.06679-2.28238,4.72008-3.23532c1.45889-1.05038,3.18994-1.9906,4.98602-2.37314
		c0.09087-0.03252,0.17508-0.06491,0.2594-0.09741c0.19449-0.07123,0.36314-0.07123,0.51237-0.02585
		c0.13591-0.01299,0.27882-0.03883,0.41473-0.04538c4.70088-0.27228,7.9362,2.76201,9.43404,4.57117
		c0.26584,0.31766,0.78465,0.07765,0.71974-0.32431c-1.75723-10.28326-7.99457-12.1377-13.14281-9.50516
		c-2.98247,1.52368-7.50792,5.24542-9.93942,7.3201c-0.27396,0.23717-0.65279,0.0316-0.67278-0.26178
		c-0.00937,0.01581-0.01376,0.02325-0.02426,0.04063c0.00699-0.03058,0.01389-0.05666,0.0211-0.08771
		c-1.38936-8.63867,1.90443-13.82472,1.90443-13.82472c-0.0343,0.00813-0.06479,0.01637-0.09854,0.02483
		c-4.23772,1.04686-6.17523,1.947-8.50356,3.13306c-0.34248,0.1744-0.69354,0.35513-1.06189,0.54341
		c-0.12326,0.0648-0.41507,3.85133-0.41507,3.85133s-0.53099,9.91751-0.90532,17.98071
		c-0.00462-0.07144-0.00958-0.14154-0.01399-0.20633c-0.17068,4.17429-0.31686,8.63753-0.38719,12.86781l-0.00101,0.03465
		c-0.00226,0.12451-0.00407,0.24835-0.00587,0.37251l0.00046,0.00182c-0.04324,2.79497-0.05249,5.4792-0.01186,7.8994
		c0.00067,0.04189,0.00146,0.08386,0.00203,0.12531c0.00644,0.36493,0.01399,0.72357,0.02258,1.07565
		c0.00169,0.05769,0.00327,0.11435,0.00462,0.17169c0.00948,0.35413,0.01941,0.70338,0.03127,1.04315
		c0.32431,9.28481,4.31821,19.98315,8.81793,25.77312c1.47842,1.89326,3.06702,3.52071,4.6423,4.90814
		c0.13625,0.12315,0.3373-0.03883,0.25296-0.20747c-2.13957-4.06525-3.57906-8.5197-4.40897-12.87019
		c-0.10373-0.55765,0.71974-0.79764,0.95329-0.27238c3.23534,7.39798,12.55887,21.71408,21.00079,26.63519
		c2.44424,1.42018,8.07866,3.25485,13.24631,3.35216v0.00644h0.05836v-0.00644c0.05847,0,0.12315-0.00632,0.18163-0.00632
		c0.05826,0,0.11661,0.00632,0.17508,0.00632v0.00644h0.03804v-0.00644c5.16766-0.09731,10.80208-1.93198,13.24654-3.35216
		c0.42627-0.24834,0.84821-0.51338,1.26971-0.7807c0.00159-0.00101,0.00293-0.00203,0.00464-0.00304
		c2.47922-1.60001,4.63901-3.32597,6.53284-5.1208l0.00204-0.00159c0.24832-0.23537,0.49069-0.47229,0.73013-0.71014
		c0.0256-0.02539,0.05225-0.05046,0.07764-0.07585c0.22296-0.22249,0.44049-0.44623,0.65573-0.67041
		c0.03952-0.04109,0.08017-0.08195,0.11923-0.12305c0.20474-0.21471,0.40421-0.43044,0.60187-0.64626
		c0.04684-0.05113,0.09494-0.10216,0.14124-0.15331c0.18884-0.20802,0.37341-0.41719,0.55606-0.62625
		c0.05225-0.05995,0.10553-0.1199,0.15747-0.17993c0.17517-0.20274,0.34631-0.40605,0.51608-0.60947
		c0.05588-0.06738,0.11276-0.13443,0.1683-0.20172c0.16324-0.19833,0.32309-0.397,0.48111-0.59567
		c0.05792-0.07269,0.11661-0.1454,0.17361-0.21809c0.15363-0.1954,0.30411-0.39102,0.45267-0.58653
		c0.05835-0.07654,0.11682-0.15308,0.1745-0.22949c0.14417-0.19212,0.28583-0.38437,0.42557-0.57672
		c0.05872-0.08047,0.11765-0.16119,0.17554-0.24179c0.13614-0.18964,0.27002-0.37929,0.40198-0.56882
		c0.05792-0.08287,0.1156-0.16605,0.17273-0.24881c0.12787-0.18625,0.25385-0.37251,0.37814-0.55852
		c0.05826-0.08704,0.11594-0.17397,0.17316-0.26088c0.12125-0.18365,0.24045-0.3671,0.35794-0.55052
		c0.05658-0.08817,0.11267-0.17633,0.16833-0.2645c0.11411-0.18037,0.22687-0.36089,0.33762-0.54092
		c0.05655-0.09178,0.11243-0.18332,0.16809-0.27487c0.10733-0.177,0.21368-0.35355,0.31808-0.52975
		c0.05533-0.09369,0.1102-0.18727,0.16483-0.28085c0.10114-0.17328,0.20172-0.34644,0.30005-0.51892
		c0.05508-0.09651,0.10913-0.19269,0.16321-0.28886c0.09515-0.16887,0.18954-0.33752,0.2821-0.50549
		c0.05441-0.09924,0.10791-0.198,0.16174-0.29688c0.08942-0.16447,0.17838-0.32895,0.2655-0.49251
		c0.05341-0.10081,0.1059-0.20093,0.1586-0.30151c0.08432-0.1604,0.16843-0.32069,0.2504-0.48009
		c0.05328-0.10318,0.10498-0.20569,0.15723-0.30852c0.07925-0.15578,0.1586-0.31166,0.23593-0.4662
		c0.05069-0.10204,0.10013-0.20273,0.15024-0.30411c0.07654-0.15465,0.1532-0.3093,0.22748-0.46269
		c0.05032-0.1033,0.099-0.20567,0.14844-0.30829c0.07077-0.14754,0.142-0.2952,0.21118-0.44138
		c0.05341-0.11266,0.1051-0.22372,0.15759-0.33548c0.06345-0.13547,0.12756-0.27171,0.18964-0.40582
		c0.05588-0.12067,0.1102-0.23941,0.16495-0.35919c0.05643-0.1228,0.11356-0.24631,0.16864-0.3681
		c0.06049-0.13286,0.11896-0.26347,0.17801-0.39464c0.04855-0.1077,0.09775-0.21651,0.14539-0.32329
		c0.07339-0.16357,0.14462-0.32466,0.21619-0.48586c0.03079-0.06999,0.06265-0.1411,0.09311-0.2103
		c0.10272-0.23242,0.20377-0.46214,0.3031-0.68904c0.32419-0.7325,1.43292-0.36958,1.25784,0.41495
		c-0.11581,0.51837-0.24213,1.03738-0.37601,1.55632c-0.02045,0.07935-0.04346,0.15872-0.06445,0.23819
		c-0.12,0.45604-0.24643,0.91197-0.38043,1.36723c-0.01343,0.04504-0.02753,0.08997-0.04095,0.13501
		c-0.14844,0.49814-0.30569,0.99483-0.47119,1.49039c-0.00235,0.00745-0.00494,0.01466-0.00732,0.0219
		c-0.17575,0.52536-0.36157,1.04788-0.55652,1.5685l-0.00034,0.00034c-0.34012,1.05264-0.772,2.06677-1.42853,3.38593
		c-0.24133,0.50851-0.49057,1.01346-0.75259,1.51161c-0.01874,0.03612-0.01941,0.07155-0.01355,0.10452
		c0.00192,0.0105,0.00555,0.01987,0.00937,0.02946c0.00781,0.01941,0.01965,0.03624,0.03366,0.05124
		c0.00879,0.00926,0.01624,0.01965,0.02686,0.02664c0.0228,0.0157,0.04843,0.02551,0.07608,0.02811l0.00067,0.00035
		c0.034-0.00182,0.06863-0.01118,0.0997-0.0394c1.57559-1.38744,3.16409-3.01488,4.64227-4.90814
		c4.49973-5.78996,8.49387-16.48831,8.81793-25.77312C289.82239,170.24637,289.82782,166.77422,289.77374,163.10417z
		 M244.99989,214.11829c-7.16194,0-12.9675-2.30202-12.9675-5.14203c0-2.8399,5.80556-5.14203,12.9675-5.14203
		c7.16183,0,12.96748,2.30212,12.96748,5.14203C257.96738,211.81627,252.16173,214.11829,244.99989,214.11829z M275.73917,151.15352
		c0.08682,0,0.32071,0.02484,0.64999,0.06107C275.7771,151.08884,275.50912,151.15352,275.73917,151.15352z"/>
	<g>
		<path fill="#282828" d="M263.61795,148.89722c1.97095,1.03751,4.0264,1.92567,6.17242,2.58061
			c0.31787,0.10374,0.2269,0.5704-0.10373,0.55765c-4.22736-0.21414-8.13715-1.21259-11.84592-3.31334
			c-0.03217-0.01941-0.04526-0.05826-0.07767-0.07777c0.18808,3.17053-1.24484,7.46278-4.05879,11.30124
			c-0.36958,0.50583-1.16721,0.149-1.01797-0.46045c0.87529-3.5401,1.75702-10.15988-1.05692-17.65527
			c-0.01288-0.07135-0.01942-0.14258-0.03229-0.21391c0.13602-1.40686,1.71819-15.92413,10.59438-17.32465
			c2.51569-0.40198,5.388-1.53024,10.01752,1.77654c2.23035,1.58849,6.17899,8.43549,8.05283,11.83934
			c0.2139,0.38901-0.29834,0.76512-0.63541,0.47333c-2.4314-2.07468-6.95074-5.79642-9.93976-7.3201
			c-5.14148-2.63254-11.38535-0.77811-13.13605,9.50516c-0.07123,0.40196,0.45392,0.64197,0.71307,0.32431
			c1.49786-1.80916,4.73972-4.84344,9.43405-4.57117c2.6778,0.15555,5.29071,1.77654,7.22281,3.33907c0,0,0.00665,0,0.00665,0.00665
			c1.23178,0.81038,2.45078,1.65327,3.66315,2.49617c0.00665,0.00655,0.01309,0.00655,0.01309,0.01299
			c0.5835,0.29823,1.78943,1.12158,1.67291,1.11528c-3.00211-0.15567-9.23965-0.77155-9.66104,0.62888
			c-0.08411,0.29169-0.03885,0.57704,0.26605,0.60933c1.67926,0.18806,7.7933,0.73927,11.04816,1.99057
			c0.16864,0.06491,0.12961,0.31122-0.04538,0.3243c-2.50272,0.18808-11.33353,0.84924-17.01331,0.99847
			C263.29364,147.85338,263.11224,148.62495,263.61795,148.89722z"/>
	</g>
	<path fill="#282828" d="M421.90945,374.70761c1.21899,13.06479-6.40598,38.73407-13.16202,44.29715
		c-0.29822,0.24631-0.62897,0.42783-0.979,0.55096c0.30478,5.62155,0.17508,13.84946-2.58707,18.06393
		c-5.85477,8.93463-14.67923,11.32709-17.52557,11.8847c-2.9502,2.01001-14.0856,10.7944-38.23117,10.7944
		c-0.67438,0-1.35529-0.00665-2.04883-0.01297c-27.41986-0.41507-53.77353-15.03485-76.43448-28.85822
		c-26.96594,13.23334-70.94002,30.28223-110.03058,30.28223c-5.4205,0-10.84079-0.27859-16.24176-0.88174
		c-23.20561-2.60001-31.1925-12.49731-34.77811-14.78613c-4.83679,0.14923-18.9584-0.16199-24.4437-8.14346
		c-1.58205-2.29523-7.55365-9.73871-8.24088-10.55576c-0.40208-0.47964-9.93965-12.02087-12.20238-35.49197
		c-0.4994-5.17419-0.11684-31.10275,11.82636-41.78143c-0.14923-0.44748-0.20747-0.92722-0.14279-1.41995
		c7.08699-54.10712,39.13604-92.56235,43.09777-94.54639c0.68079-0.3436,1.19294-1.53667,1.56918-2.41196
		c0.20725-0.47333,0.40175-0.92078,0.64828-1.3486c1.42638-2.45079,4.75913-3.59859,8.97337-4.84344
		c0.66805-0.20105,1.56274-0.46689,1.93233-0.60947c0.6353-0.42804,34.26019-14.99046,38.38391-16.68922
		c9.92012-4.0719,16.07335-6.4903,17.05881-8.64285c1.58194-3.46878,5.06369-4.4933,8.62344-5.27129
		c0.07133-0.01297,0.12315-0.07788,0.12958-0.15565c0.12317-2.50928,0.9402-4.49962,2.48975-6.0688
		c0.11671-0.11682,0.23987-0.23332,0.36314-0.35016c1.53667-1.41983,3.51414-2.27571,5.61488-2.44435
		c0.13626-0.01311,0.20116-0.16853,0.11018-0.27228c-0.60291-0.6808-1.17996-1.37457-1.72452-2.07489
		c-5.25186-6.74959-9.2979-17.9147-10.06946-27.59482h-0.04526c-2.54822,0-4.9472-1.30978-6.5876-3.5856
		c-2.81395-3.90981-7.9554-20.65729-7.43683-25.62389c0.06491-0.60292,0.14258-1.18663,0.24632-1.7507
		c0.01309-0.07767-0.03241-0.15555-0.10374-0.18141c-1.86719-0.68079-3.37146-2.14622-4.08466-4.05249
		c-0.97903-2.61288-0.3049-5.47874,1.70509-7.38499c0.04549-0.03882,0.06491-0.09708,0.04549-0.15556
		c-0.42139-1.39386-0.38255-2.93719,0.27882-4.45421c0.66782-1.53036,1.94508-2.71687,3.45578-3.42995l7.76114-3.65683v-0.10374
		c-0.13626-0.03251-0.27882-0.0649-0.4214-0.09742c-1.98424-0.49905-19.79507-5.25818-28.47021-17.37003
		c-10.55577-14.7375-5.74483-29.35963,2.37289-38.26856c1.44592-1.58192,1.43938-1.62741,1.24487-2.74912
		c-0.65483-3.8318,0.35016-9.12125,5.41408-14.46387c4.4803-4.72673,9.71263-3.85787,13.57695-4.46089
		c3.65028-0.57706,7.0932-1.11517,12.17653-4.81739c6.90536-5.02495,16.0537-12.42293,28.81395-12.42293
		c6.10107,0,12.18297,1.99701,18.73151,4.70077c6.30234,2.59348,10.99657,5.02485,14.77011,6.97648
		c5.71219,2.95019,9.44025,5.50472,13.43427,5.50472c0.90137,0,1.85434-0.07779,2.90494-0.23988
		c1.42627-0.21391,2.85919-0.3242,4.26617-0.3242c7.02838,0,14.74765,1.35109,20.4079,6.49276
		c4.37015,3.9745,7.20349,9.71919,9.49875,15.65841c3.89014,10.04971,4.561,19.94137,7.5437,23.78639
		c1.03085,1.32908,2.02298,2.49628,2.98236,3.62432c3.94876,4.63597,10.45203,10.30933,10.09531,19.89226
		c-0.27228,7.28783-6.14655,13.85578-15.78152,17.72675c-0.0647,0.02585-0.10376,0.09076-0.0972,0.16209
		c0.03894,0.55765,0.00644,1.12161-0.10373,1.6727c-0.03885,0.22046-0.09732,0.44104-0.16199,0.65494
		c-0.01312,0.05826,0,0.12317,0.04526,0.16199c2.01642,1.90625,2.68433,4.77211,1.71173,7.38499
		c-0.71973,1.90627-2.21756,3.3717-4.08466,4.05249c-0.07797,0.02586-0.11682,0.10374-0.10385,0.18141
		c0.0972,0.56407,0.18152,1.15422,0.23978,1.7507c0.5188,4.9666-4.62289,21.71408-7.43683,25.62389
		c-1.64029,2.27582-4.03937,3.5856-6.58105,3.5856h-0.00632c-0.77155,9.68011-4.8176,20.84523-10.06946,27.59482
		c-0.61588,0.79097-1.27072,1.56917-1.95151,2.32764c0.16211-0.01299,0.3241-0.01299,0.48618-0.01299
		c2.39255,0,4.66837,0.87529,6.3931,2.47687c0.12961,0.11684,0.25275,0.23334,0.3696,0.3566
		c1.54309,1.56274,2.36646,3.55309,2.48962,6.06236c0.00665,0.07777,0.05859,0.14268,0.12982,0.15565
		c3.55307,0.77798,7.04126,1.80251,8.62341,5.27129c0.96606,2.12016,7.69635,4.57095,18.59528,9.34949
		c5.86154,2.45746,20.23599,8.64952,27.23199,11.69678c1.91925,0.78465,3.44937,1.42639,4.68137,1.95175
		c0.07135-0.01299,0.13602-0.02608,0.2139-0.03241l-0.04547,0.10374c3.09918,1.3486,4.18207,1.95151,4.64252,2.26273
		c0.36957,0.14258,1.26428,0.40842,1.9321,0.60947c4.20804,1.24486,7.547,2.39265,8.9736,4.84344
		c0.24631,0.42783,0.4408,0.87527,0.64197,1.3486c0.37589,0.87529,0.89468,2.06836,1.5755,2.41196
		c2.43781,1.21892,11.17142,12.66928,19.29568,27.82828c7.74161,14.45233,17.59036,37.24286,20.78699,64.0079
		c0.90768,0.91412,1.8996,2.06168,2.90469,3.5076C418.25262,355.56104,420.91101,364.05475,421.90945,374.70761z
		 M402.9444,400.20169c1.51724,3.08643,12.49438-1.53003,11.68378-25.35794c-0.73904-21.79843-10.22479-26.04541-10.31555-26.09079
		c-0.2594-0.10361-0.32431-0.16208-0.54453-0.33051c-19.38669-14.53668-39.35019-14.97107-46.57965-14.56265
		c-0.03882,1.23843-0.2269,2.55453-0.61588,3.91623c0.96603,1.58194,2.89838,5.59549,1.96448,11.10031
		c-0.86862,5.12195-3.96805,9.99789-9.20691,14.56241c3.46875,1.16721,6.99612,2.4639,10.52313,3.90326
		C382.07974,376.43234,396.43466,386.92297,402.9444,400.20169z M398.90521,433.68399
		c2.59348-3.24185,1.14114-10.47144-0.21414-15.99545c-5.83524-23.76956-26.20737-34.74005-35.44681-39.927
		c-4.8562-2.7233-23.82126-14.95807-53.65308-15.56122c-16.04752-0.32407-23.99002,7.78067-52.22693,5.99115
		c-20.09309-1.27084-53.69191-1.30978-55.07957-1.29037c-14.16055,0.5835-26.31755,7.15811-33.70898,10.9057
		c37.8327,4.19507,72.85168,26.92068,95.28542,41.48975c24.22989,15.72964,53.06326,31.86768,83.21915,32.328
		c21.3576,0.31766,31.55011-7.63144,35.10321-10.43881c0.46677-0.3696,1.05038-0.62256,1.64685-0.69379
		C384.16107,440.44644,392.96591,441.10141,398.90521,433.68399z M402.3609,339.45529
		c-6.67825-41.26266-27.67914-71.85315-33.48221-78.58344c0,0-8.39655,7.94931-8.94754,7.57974
		c-1.49118-0.99213,4.28583-12.28027,4.28583-12.28027c0.03238-0.05194,0.07767-0.09076,0.1167-0.13626
		c-0.03903-4.13657-4.25351-4.78508-6.3476-4.31821c-1.89981-0.56407-22.7323-11.13913-48.12262-21.83736
		c-1.15411-0.4863-2.43784-0.33707-3.50128,0.22702c-0.013,0.01297-0.02585,0.01941-0.03885,0.03239
		c-1.95804,1.9321-5.89371,7.6768-12.88971,12.27371c-0.00644,0.00655-0.00644,0.00655-0.01309,0.00655
		c-3.24176,1.81538-9.19385,4.29224-11.65771,5.2907c6.81448,2.80762,20.54056,7.63142,28.535,10.65927
		c1.49783,0.5643,1.9776,2.48996,1.40054,3.98114c-0.02585,0.07135-13.29181,37.93011-19.98935,95.58377
		c-0.17508,1.49118,1.91901,0.7326,3.37146,0.35669c0.00653,0,0.01297-0.00665,0.01941-0.00665
		c0.01297-0.02585,0.02597-0.06467,0.03906-0.09076l12.75357-22.90701c0.22668-0.40863,0.53159-0.75882,0.90115-1.03098
		l25.07269-18.58905c0.7457-0.55109,1.69876-0.75858,2.61288-0.56406c0.29181,0.06491,0.55765,0.17508,0.81705,0.31122
		c5.84833-22.10309,18.10919-42.33255,19.61334-41.35352c1.49783,0.97903-9.22635,20.87131-14.05026,51.45514
		c-0.03253,0.20117-0.03253,0.39566-0.07779,0.58371c2.4639-1.38101,4.98602-2.63254,7.55353-3.68921
		c1.39401-0.57718,2.99557-0.11685,3.87097,1.10217c0.09708,0.13626,1.12161,1.59503,1.93842,3.90326
		C363.39349,326.88977,385.0752,327.78445,402.3609,339.45529z M352.1181,347.93616
		c0.27881-1.49783-0.01276-3.94876-0.22034-5.02496l-20.74805,15.48331c3.06036,0.73904,7.33307,1.69876,10.71121,2.69055
		C347.77405,356.83173,351.31415,352.31262,352.1181,347.93616z M349.7258,337.63336
		c1.49118-3.15112,1.01785-8.24088,0.33707-10.1731c-2.91769,1.94531-5.62799,4.37003-8.04639,5.58273
		c-15.06183,7.55341-20.3331,17.4671-24.94952,22.47266c1.93863,0.27869,5.42694,0.93353,7.92322,1.41983
		c0.12958-0.13614,24.67072-19.12061,24.67072-19.12061C349.68674,337.75018,349.69971,337.69162,349.7258,337.63336z
		 M335.3381,330.76694c2.18509-2.55466,1.5368-8.81793-0.83633-10.5491c0,0-2.61288,3.88385-6.26984,6.38013
		c-5.34918,3.6698-12.46832,8.77267-15.02298,11.66437c-3.30002,3.74115-11.12616,18.15457-11.12616,18.15457
		c1.82214-0.44104,6.45801-1.621,8.1568-1.75079c0.07132-0.16202,4.09131-5.40076,10.55551-11.74207
		C324.81509,338.98196,329.78171,334.6055,335.3381,330.76694z M321.98807,112.12122
		c0.33075-8.8956-3.8125-11.3465-9.28461-18.40076c-5.47232-7.05449-7.1582-16.94864-11.13281-26.76502
		c-3.98093-9.81649-13.46677-20.93621-27.17343-18.86787c-11.62531,1.75713-15.72961-4.21447-33.96861-11.72918
		c-18.23235-7.51471-30.95341-2.07478-42.01466,5.97802c-12.07278,8.78555-18.19351,3.52726-24.44382,10.12118
		c-7.07379,7.46289,1.4782,8.28637-5.6474,16.10585c-7.1256,7.82581-10.78242,20.0153-2.82037,31.13493
		c7.19051,10.03695,22.71254,14.32265,24.66428,14.82848c0.10374,0.02585,0.20726-0.04549,0.20726-0.15566
		c0.0325-1.60158,0.04549-11.96906-4.22079-13.51872c-6.31522-2.29522-12.40987-7.80637-15.50917-13.4084
		c-0.09064-0.17508,0.14268-0.3567,0.28526-0.21391c6.82736,6.65228,18.45291,7.48874,26.28516,5.64716
		c3.24841-0.76488-13.79099-5.44623-19.64563-23.24408c-0.03906-0.12327,0.09708-0.24001,0.18784-0.13625
		c7.28127,7.63797,17.18196,12.82493,27.60791,15.23045c15.72961,3.62442,13.81694,0.21391,13.16866-0.21413
		c-1.25153-0.81039-17.71364-16.55943-18.37503-33.2876c0.03252,0,6.54211,14.9776,17.89528,22.40143
		c16.8318,11.00944,33.52104,11.69678,29.23534-6.34761c-0.04549-0.18818,0.21391-0.29169,0.30467-0.11661
		c3.94864,7.45634,15.27571,15.52214,27.02443,19.59381c8.79187,3.05392,9.90714,1.58849,19.34738,6.49684
		c8.0788,4.19506,13.74561,14.38101,19.52927,16.06026c0.1684,0.04527,0.16199,0.28526-0.013,0.31765
		c-4.5452,0.8754-9.13559,0.34373-12.78607-2.08765c-0.10376-0.07134-0.25275,0-0.25275,0.12959l-0.17508,15.58705
		c0,0.07123,0.05191,0.14256,0.12314,0.16199C309.29938,126.01593,321.65744,120.97798,321.98807,112.12122z M307.49054,138.1017
		c0.41473,0.12982,0.73239-0.3759,0.40198-0.66138l-6.63309-5.76401c-0.26584-0.23334-0.11017-0.65472,0.25296-0.68082
		l3.95508-0.24629c0.17508-0.00644,0.22058-0.23999,0.06491-0.31766l-8.9736-4.22089
		c-0.32419-0.15567-1.61456,5.48507-1.65338,5.72506l-1.72464,11.67082c-0.03903,0.27216,0.21393,0.49915,0.49274,0.43448
		l6.45779-2.50284c0.0325-0.00655,0.06491-0.01299,0.0972-0.01299c0.31122,0,0.52524,0.33708,0.33728,0.60292
		c-1.3161,1.88039-6.06879,8.04637-6.25684,11.56064c-0.1882,3.44292,5.6019,6.19194-0.19452,12.21536
		c-0.04547,0.04547-0.05835,0.1104-0.03894,0.16864c1.33563,4.2664,2.92422,2.48329,3.35861,1.88017
		c2.12015-2.94995,6.57462-18.09608,6.25031-21.1629c-0.20084-1.9192-0.66772-4.31175-2.13315-6.15309
		c-0.87531-1.10229-2.11374-2.00345-3.87741-2.47678c-0.07767-0.01962-0.16199-0.03238-0.24631-0.05179l0.29825-2.61955
		c0.03238-0.24632,0.29178-0.40842,0.53821-0.33064L307.49054,138.1017z M287.40356,353.65479
		c7.37222-54.44415,15.82703-82.56445,18.62155-90.81821c-6.19208-3.28082-15.3667-6.65884-21.51959-9.23933
		c3.77997,4.03285,8.42892,9.44026,11.07422,12.54613c0.00644,0.01276,0.013,0.02585,0.01941,0.03882
		c0.59015,1.37469,0.66782,2.81393,0.43451,4.02643c-1.31635,6.76266-10.21848,6.76266-13.57065,6.76266
		c-3.138,0-9.46634-0.36313-16.54001-2.78152c-9.27182-3.16409-16.30023-8.30579-20.92311-14.80252
		c-0.06491-0.09088-0.20116-0.09088-0.26584,0c-6.02353,8.3963-14.43283,14.87375-24.43094,18.28427
		c-6.08833,2.08133-13.35007,3.3262-19.43195,3.3262c-3.0668,0-10.81494,0.23331-12.01431-5.94565
		c-0.50572-2.57407,1.3486-6.58105,4.74614-8.2085c0,0,0.00632,0,0.01299-0.00653c0.34351-0.20737,1.01154-0.90781,1.77643-1.78952
		c0.00667-0.00644,7.82603-13.13615,16.35217-16.30669c0.14256-0.05824,0.14256-0.25275-0.00644-0.30467
		c-2.75569-0.86885-17.72018-7.17764-27.01144-17.15611c-1.17352-1.25786-3.00842-1.69878-4.61-1.06335
		c-19.38014,7.76756-45.40588,20.9361-47.30569,21.50017c-6.30856-0.62898-6.22424,2.85289-5.57584,3.98758
		c0,0,6.79485,13.41498,5.26484,14.34207c-7.45657-11.01599-11.37912-8.4548-12.76024-6.80151
		c-3.5076,4.20148-9.23933,11.94321-15.20438,22.58951c-7.44337,13.28537-14.18652,32.8338-18.14802,58.5874
		c15.99535-7.13226,35.44671-12.53302,61.99126-11.44382c-0.55109-18.86133-15.0294-57.73798-13.25275-58.51617
		c1.54953-0.67413,19.32797,39.12305,19.75603,59.31357c1.14113,0.17496,5.25818,0.06479,8.05913,7.06079
		c1.44603,3.60504,2.9502,12.24789,2.04251,21.85678c-0.47333,4.94717,4.72018,8.51328,9.15521,6.2764
		c7.59892-3.83835,15.1265-6.65228,27.49753-7.41751c0.0325,0,0.05847,0,0.09074,0
		c0.32433-0.00632,38.87665,0.37622,59.5601,1.62109c7.76093,0.46664,12.8895-0.34372,17.45413-1.24487
		C283.03363,361.08505,286.81375,357.99252,287.40356,353.65479z M297.09045,225.54189
		c0.26572-0.61589,0.33707-1.65327-0.40842-3.29369c-0.71973-1.5755-8.71417-2.02296-9.36914-3.25485
		c-0.65482-1.22546,0.82336-4.94077-0.5899-6.37369c-0.05194-0.05171-0.10376-0.0972-0.15567-0.14902
		c-1.20593-1.11528-3.26785-0.9727-4.27295,0.29825c-5.42029,6.85974-13.20724,9.92654-18.97137,11.94319
		c-0.0455,0.10374-0.06491,0.15567-0.11017,0.25275c1.02429,2.74271,0.29822,6.00398-0.92081,8.92168
		c-0.05191,0.12315,0.05182,0.25275,0.18808,0.22701c1.19937-0.26584,2.4184-0.47331,3.63074-0.75858
		c3.04761-0.7133,5.99115-1.69234,8.85699-2.94376c0.11661-0.04526,0.26584,0.09731,0.14902,0.19461
		c-4.23389,3.35205-10.12106,7.65085-15.78787,7.43027c-1.27725-0.0518,0.73917-11.17796-5.71873-11.02873
		c-1.58849,0.03882-3.30025,0.06479-5.13525,0.11017c-1.55609,0.03883-4.10408,0.05182-5.66016,0.01299
		c-1.9776-0.05836-3.80608-0.05836-5.49818-0.12315c-6.63953-0.2594-4.1368,10.97693-5.40752,11.02873
		c-5.67337,0.22058-11.56053-4.07822-15.79453-7.43027c-0.11673-0.09731,0.03894-0.23987,0.14911-0.19461
		c2.86586,1.25142,5.81606,2.23045,8.85699,2.94376c1.2188,0.28526,2.43115,0.49274,3.63719,0.75858
		c0.12981,0.02574,0.23355-0.10385,0.18163-0.22701c-1.1671-2.78798-1.8804-5.89372-1.03751-8.56508
		c-0.11661-0.23344-0.17508-0.36304-0.29169-0.60292c-5.75757-2.0164-13.5511-5.08344-18.97804-11.94962
		c-1.00488-1.27095-3.06036-1.41353-4.27272-0.29825c-0.05193,0.05182-0.10373,0.09731-0.14923,0.14902
		c-1.41995,1.43292,0.05847,5.14822-0.59647,6.37369c-0.65483,1.23189-8.64285,1.67935-9.36259,3.25485
		c-0.75214,1.64041-0.6808,2.6778-0.41496,3.29369c0.20105,0.46687,6.41896,11.15201,28.69736,15.71663
		c3.49449,0.71986,4.97292,0.94662,7.35248,1.10219c0.09076,0.00667,0.16866,0.08434,0.16199,0.18175
		c-0.75201,10.28326-13.88815,18.73804-13.75203,18.4527c2.13315-4.37659,8.85677-11.99492,6.62012-11.61235
		c-1.45258,0.79097-2.73627,0.58348-5.40109,1.95151c-11.26241,5.78365-18.25175,19.12727-22.93311,21.02055
		c-4.68135,1.88672,5.83546,5.18683,23.62677-0.81705c16.21591-5.46579,23.14702-17.4933,25.85722-23.63988
		c0.04549-0.10374-0.02574-0.21391-0.14258-0.2269c-3.46877-0.27238-6.81438-2.13313-8.99301-5.78996
		c-0.49905-0.82349,0.15565-1.56253,0.98569-1.05681c5.75757,3.52701,13.98547,3.85776,19.72363-0.13626
		c0.10374-0.07121,0,0.71332-0.05836,0.81039c-2.12671,3.75424-5.43993,5.56319-9.07091,6.08832
		c-0.10373,0.01299-0.16864,0.10374-0.13612,0.20105c1.53023,5.2907,5.78996,14.84776,21.64273,20.26817
		c12.76669,4.35715,26.23346,2.13324,21.55212,0.24643c-4.68115-1.89328-8.38345-10.21848-16.37158-16.69568
		c-1.41986-1.15411-5.02487-2.43138-7.18387-2.20448c-2.23056-0.38255,4.49329,7.23576,6.6199,11.61244
		c0.14255,0.28528-15.3017-8.05293-11.80042-18.53711c0.01941-0.06491,0.08432-0.11017,0.15567-0.11684
		c2.41174-0.149,3.91602-0.25275,7.41074-1.10219C289.89352,236.04549,296.88953,226.00876,297.09045,225.54189z
		 M294.91837,101.02757c0-0.05836-0.02606-0.11018-0.07135-0.14268c-17.24042-12.09221-82.27907-12.09221-99.51929,0
		c-0.04549,0.03251-0.07133,0.08432-0.07133,0.14268c0.03227,0.99201,0.35016,9.94619,0.3566,19.78199
		c0,0.12959,0.13612,0.2139,0.24631,0.149c2.0425-1.2188,16.81238-9.27815,49.22491-9.27815
		c34.27962,0,47.2795,8.15012,49.21159,9.51814c0.11041,0.07789,0.25943-0.00644,0.25943-0.14257
		C294.56821,111.22008,294.87955,102.03899,294.91837,101.02757z M289.73785,173.16595
		c0.49274-14.1864-1.25784-41.36638-1.25784-41.36638l-0.21393-3.52069c-0.00665-0.14256-0.07788-0.26584-0.20749-0.33064
		c-2.33429-1.19305-5.51779-2.5613-9.84244-3.81892c-0.616-0.17509-9.74515-9.23301-21.39645-3.51426
		c-3.52711-0.25298-7.37201-0.39555-11.58647-0.40198v-0.00666c-0.00644,0-0.01942,0.00666-0.02586,0.00666
		c-0.01297,0-0.01964-0.00666-0.03239-0.00666v0.00666c-0.05858,0-0.11684,0-0.17508,0c-0.05847,0-0.11684,0-0.18173,0v-0.00666
		c-0.00633,0-0.01942,0.00666-0.02586,0.00666c-0.01297,0-0.01941-0.00666-0.03239-0.00666v0.00666
		c-6.11406,0.01298-8.35759-0.01942-13.05826,0.46666c-5.26483-2.96939-11.85887-2.43138-20.09975,3.56618
		c-4.94077,1.21259-6.77544,2.2239-9.66737,3.70232c-0.12315,0.0648-0.41484,3.85133-0.41484,3.85133
		s-1.75714,27.17998-1.2644,41.36638c0.3242,9.28481,4.31821,19.98315,8.81793,25.77312
		c1.47832,1.89326,3.06691,3.52071,4.64252,4.90814c0.13591,0.12315,0.33707-0.03883,0.25275-0.20747
		c-2.13957-4.06525-3.57893-8.5197-4.40897-12.87019c-0.10373-0.55765,0.71964-0.79764,0.95319-0.27238
		c3.23521,7.39798,12.55898,21.71408,21.0009,26.63519c2.44447,1.42018,8.07877,3.25485,13.24631,3.35216v0.00644
		c0.01299,0,0.01942,0,0.03239,0c0.00644,0,0.01953,0,0.02586,0v-0.00644c0.05847,0,0.12326-0.00632,0.18173-0.00632
		c0.05824,0,0.1165,0.00632,0.17508,0.00632v0.00644c0.01276,0,0.01942,0,0.03239,0c0.00644,0,0.01942,0,0.02586,0v-0.00644
		c5.17407-0.09731,10.8409-1.90613,13.24632-3.35216c12.26083-7.37834,17.13669-17.80429,20.36548-25.17642
		c0.32431-0.7325,1.43292-0.36958,1.25784,0.41495c-0.85587,3.83192-2.19781,7.70267-4.07822,11.27541
		c-0.08432,0.16209,0.1167,0.32408,0.25275,0.20093c1.58215-1.38744,3.16409-3.01488,4.64252-4.90814
		C285.42609,193.14911,289.4202,182.45076,289.73785,173.16595z M250.58882,430.27991
		c1.75058-1.16055,2.08788-3.51425,0.3242-4.66171c-0.01299-0.00665-51.87022-47.20828-104.22673-40.88672
		c-20.59248,2.48328-36.29603,14.15411-46.68314,25.39697c-5.07035,5.47876-10.8409,15.65173-7.98148,22.55045
		c0.28526,0.68079,0.57073,1.24496,0.84933,1.65338c3.35217,4.87598,13.43438,2.93066,18.82904,2.63242
		c0.74548-0.03894,1.4782,0.17499,2.08121,0.60947c0.11661,0.08432,11.98203,11.72263,37.41775,14.46533
		C190.19891,456.24753,230.76146,443.40961,250.58882,430.27991z M196.28069,144.04102
		c0.27882,0.06467,0.53822-0.16232,0.49939-0.43448l-1.73117-11.67082c-0.03905-0.23999-1.32919-5.88073-1.6535-5.72506
		l-8.96693,4.22089c-0.15567,0.07767-0.11671,0.31122,0.05824,0.31766l3.9615,0.24629
		c0.35683,0.02609,0.51237,0.44748,0.24666,0.68082l-6.6331,5.76401c-0.32408,0.28548-0.01286,0.7912,0.40198,0.66138l9.233-2.94353
		c0.24631-0.07777,0.50572,0.08432,0.53157,0.33064l0.29846,2.61955c-0.08432,0.01941-0.16866,0.03217-0.24666,0.05179
		c-2.19138,0.58994-3.58525,1.85445-4.47365,3.33897c-1.0051,1.686-1.36159,3.66348-1.53667,5.29089
		c-0.31764,3.06682,4.13014,18.21295,6.25697,21.1629c0.42783,0.60312,2.01642,2.38623,3.35837-1.88017
		c0.01964-0.05824,0-0.12317-0.03883-0.16864c-5.80284-6.02342-0.01286-8.77245-0.1945-12.21536
		c-0.18805-3.51427-4.75246-9.09021-6.06889-10.97061c-0.10374-0.14256-0.08434-0.30457,0-0.42783
		c0.08432-0.12315,0.25296-0.20103,0.43448-0.1622L196.28069,144.04102z M156.84641,377.11292
		c4.29225-9.42075,3.26784-22.25876,1.95174-30.38947c-0.57706-3.55942-3.40408-6.36035-6.98303-6.83368
		c-4.68135-0.62256-9.23955-0.90137-13.67436-0.90137c-22.4792,0-40.40699,7.32663-53.05017,14.78299
		c-11.36615,6.70444-13.27872,23.49075-12.8054,35.82294c0.75845,19.82736,10.14701,25.72107,12.97382,22.33008
		c2.39265-2.87228,5.3039-6.06223,8.72729-9.31067c10.41951-9.88138,27.8023-22.21991,51.47456-24.88474
		C149.26691,377.30109,153.047,377.09348,156.84641,377.11292z"/>
	<path fill="#FFFFFF" d="M414.62817,374.84375c0.81061,23.82791-10.16653,28.44437-11.68378,25.35794
		c-6.50974-13.27872-20.86465-23.76935-43.09113-32.85968c-3.52701-1.43936-7.05438-2.73605-10.52313-3.90326
		c5.23886-4.56451,8.33829-9.44046,9.20691-14.56241c0.9339-5.50482-0.99844-9.51837-1.96448-11.10031
		c0.38898-1.36169,0.57706-2.6778,0.61588-3.91623c7.22946-0.40842,27.19296,0.02597,46.57965,14.56265
		c0.22021,0.16843,0.28513,0.2269,0.54453,0.33051C404.40338,348.79834,413.88913,353.04532,414.62817,374.84375z"/>
	<path fill="#FFFFFF" d="M368.87869,260.87186c5.80307,6.73029,26.80396,37.32077,33.48221,78.58344
		c-17.28571-11.67084-38.96741-12.56552-46.2164-12.04028c-0.8168-2.30823-1.84134-3.767-1.93842-3.90326
		c-0.8754-1.21902-2.47696-1.67935-3.87097-1.10217c-2.5675,1.05667-5.08963,2.3082-7.55353,3.68921
		c0.04526-0.18805,0.04526-0.38254,0.07779-0.58371c4.82391-30.58383,15.5481-50.4761,14.05026-51.45514
		c-1.50415-0.97903-13.76501,19.25043-19.61334,41.35352c-0.2594-0.13614-0.52524-0.24631-0.81705-0.31122
		c-0.91412-0.19452-1.86719,0.01297-2.61288,0.56406l-25.07269,18.58905c-0.36957,0.27216-0.67447,0.62234-0.90115,1.03098
		l-12.75357,22.90701c-0.01309,0.02609-0.02609,0.06491-0.03906,0.09076c-0.00644,0-0.01288,0.00665-0.01941,0.00665
		c-1.45245,0.37592-3.54654,1.13449-3.37146-0.35669c6.69754-57.65366,19.9635-95.51242,19.98935-95.58377
		c0.57706-1.49118,0.09729-3.41684-1.40054-3.98114c-7.99445-3.02785-21.72052-7.85165-28.535-10.65927
		c2.46387-0.99846,8.41595-3.47531,11.65771-5.2907c0.00665,0,0.00665,0,0.01309-0.00655
		c6.996-4.59691,10.93167-10.34161,12.88971-12.27371c0.013-0.01299,0.02585-0.01942,0.03885-0.03239
		c1.06345-0.56409,2.34717-0.71332,3.50128-0.22702c25.39032,10.69823,46.22281,21.27328,48.12262,21.83736
		c2.09409-0.46687,6.30856,0.18164,6.3476,4.31821c-0.03903,0.0455-0.08432,0.08432-0.1167,0.13626
		c0,0-5.77701,11.28815-4.28583,12.28027C360.48215,268.82117,368.87869,260.87186,368.87869,260.87186z"/>
	<path fill="#FFFFFF" d="M312.70346,93.72046c5.47211,7.05425,9.61536,9.50516,9.28461,18.40076
		c-0.33063,8.85677-12.68869,13.89471-21.59738,11.30124c-0.07123-0.01943-0.12314-0.09076-0.12314-0.16199l0.17508-15.58705
		c0-0.12959,0.14899-0.20093,0.25275-0.12959c3.65048,2.43137,8.24088,2.96305,12.78607,2.08765
		c0.17499-0.03239,0.1814-0.27238,0.013-0.31765c-5.78366-1.67924-11.45047-11.8652-19.52927-16.06026
		c-9.44025-4.90836-10.55551-3.44292-19.34738-6.49684c-11.74872-4.07167-23.07579-12.13747-27.02443-19.59381
		c-0.09076-0.17509-0.35016-0.07157-0.30467,0.11661c4.28571,18.04439-12.40353,17.35705-29.23534,6.34761
		C206.7002,66.2033,200.1906,51.2257,200.15808,51.2257c0.66139,16.72818,17.1235,32.47721,18.37503,33.2876
		c0.64828,0.42805,2.56096,3.83855-13.16866,0.21413c-10.42595-2.40553-20.32664-7.59248-27.60791-15.23045
		c-0.09076-0.10375-0.2269,0.01299-0.18784,0.13625c5.85464,17.79785,22.89404,22.4792,19.64563,23.24408
		c-7.83224,1.84158-19.45779,1.00512-26.28516-5.64716c-0.14258-0.1428-0.3759,0.03883-0.28526,0.21391
		c3.0993,5.60203,9.19395,11.11318,15.50917,13.4084c4.26628,1.54967,4.2533,11.91714,4.22079,13.51872
		c0,0.11017-0.10352,0.18151-0.20726,0.15566c-1.95174-0.50583-17.47377-4.79153-24.66428-14.82848
		c-7.96205-11.11963-4.30522-23.30912,2.82037-31.13493c7.1256-7.81948-1.42639-8.64296,5.6474-16.10585
		c6.25031-6.59392,12.37103-1.33563,24.44382-10.12118c11.06125-8.0528,23.78232-13.49272,42.01466-5.97802
		c18.239,7.51471,22.34331,13.48631,33.96861,11.72918c13.70667-2.06835,23.1925,9.05137,27.17343,18.86787
		C305.54526,76.77182,307.23114,86.66597,312.70346,93.72046z"/>
	<path fill="#FFFFFF" d="M306.02512,262.83658c-2.79453,8.25375-11.24933,36.37405-18.62155,90.81821
		c-0.58981,4.33774-4.36993,7.43027-8.66229,8.27338c-4.56464,0.90115-9.69321,1.71152-17.45413,1.24487
		c-20.68346-1.24487-59.23578-1.62741-59.5601-1.62109c-0.03227,0-0.05824,0-0.09074,0
		c-12.37103,0.76523-19.89861,3.57916-27.49753,7.41751c-4.43503,2.23688-9.62854-1.32922-9.15521-6.2764
		c0.90768-9.60889-0.59648-18.25174-2.04251-21.85678c-2.80095-6.996-6.918-6.88583-8.05913-7.06079
		c-0.42805-20.19052-18.2065-59.9877-19.75603-59.31357c-1.77666,0.7782,12.70166,39.65485,13.25275,58.51617
		c-26.54456-1.0892-45.99592,4.31155-61.99126,11.44382c3.9615-25.7536,10.70465-45.30203,18.14802-58.5874
		c5.96505-10.6463,11.69678-18.38803,15.20438-22.58951c1.38112-1.65329,5.30367-4.21448,12.76024,6.80151
		c1.53001-0.92709-5.26484-14.34207-5.26484-14.34207c-0.64839-1.13469-0.73272-4.61656,5.57584-3.98758
		c1.89981-0.56407,27.92555-13.7326,47.30569-21.50017c1.60158-0.63542,3.43648-0.1945,4.61,1.06335
		c9.29126,9.97847,24.25575,16.28726,27.01144,17.15611c0.149,0.05193,0.149,0.24643,0.00644,0.30467
		c-8.52614,3.17053-16.3455,16.30025-16.35217,16.30669c-0.76489,0.88171-1.43292,1.58215-1.77643,1.78952
		c-0.00667,0.00653-0.01299,0.00653-0.01299,0.00653c-3.39754,1.62744-5.25186,5.63443-4.74614,8.2085
		c1.19937,6.17896,8.94751,5.94565,12.01431,5.94565c6.08188,0,13.34361-1.24487,19.43195-3.3262
		c9.99811-3.41052,18.40741-9.88797,24.43094-18.28427c0.06468-0.09088,0.20093-0.09088,0.26584,0
		c4.62288,6.49673,11.65129,11.63843,20.92311,14.80252c7.07367,2.4184,13.40201,2.78152,16.54001,2.78152
		c3.35217,0,12.2543,0,13.57065-6.76266c0.23331-1.21249,0.15564-2.65173-0.43451-4.02643
		c-0.00641-0.01297-0.01297-0.02606-0.01941-0.03882c-2.64529-3.10587-7.29425-8.51328-11.07422-12.54613
		C290.65842,256.17773,299.83304,259.55576,306.02512,262.83658z"/>
	<path fill="#FFFFFF" d="M294.84702,100.88489c0.04529,0.03251,0.07135,0.08432,0.07135,0.14268
		c-0.03882,1.01142-0.35016,10.1925-0.36313,20.02841c0,0.13613-0.14902,0.22046-0.25943,0.14257
		c-1.9321-1.36803-14.93198-9.51814-49.21159-9.51814c-32.41254,0-47.18242,8.05936-49.22491,9.27815
		c-0.11018,0.0649-0.24631-0.01942-0.24631-0.149c-0.00644-9.8358-0.32433-18.78998-0.3566-19.78199
		c0-0.05836,0.02585-0.11018,0.07133-0.14268C212.56795,88.79268,277.6066,88.79268,294.84702,100.88489z"/>
	<path fill="#FFFFFF" d="M158.79814,346.72345c1.3161,8.13071,2.34052,20.96872-1.95174,30.38947
		c-3.79941-0.01944-7.5795,0.18817-11.38556,0.61609c-23.67226,2.66483-41.05505,15.00336-51.47456,24.88474
		c-3.42339,3.24844-6.33463,6.43839-8.72729,9.31067c-2.82681,3.39099-12.21536-2.50272-12.97382-22.33008
		c-0.47332-12.33218,1.43925-29.1185,12.8054-35.82294c12.64318-7.45636,30.57097-14.78299,53.05017-14.78299
		c4.43481,0,8.99301,0.27881,13.67436,0.90137C155.39406,340.3631,158.22108,343.16403,158.79814,346.72345z"/>
	<g>
		<path fill="#282828" d="M231.95767,192.46831c5.61488,2.84622,12.39699,3.57883,18.72507,2.53513
			c0.02608-0.00667,0.06491-0.01965,0.09731-0.03241c0.03252-0.01309,0.07135,0,0.11017-0.00665
			c1.76369-0.30467,5.51128-1.55611,7.1711-2.13315c0.31766-0.11661-2.57407,3.81903-6.80795,5.67337
			c-0.72629,0.31776-1.36801,0.79108-1.80251,1.43294c-1.3486,1.98402-2.93077,3.61787-4.43492,3.61787
			c-1.38756,0-2.89815-1.43938-4.20149-3.26129c-0.53157-0.73271-1.2188-1.36801-2.07468-1.72473
			c-2.69078-1.10229-4.88893-3.60501-6.85344-6.01042C231.84084,192.50714,231.89276,192.43581,231.95767,192.46831z"/>
	</g>
	<g>
		<path fill="#282828" d="M244.82143,168.94505c0.05847-0.00644,0.11671-0.01299,0.18163-0.01941
			c0.05826,0.00642,0.12315,0.01297,0.17508,0.01941v0.00655c0.00644,0,0.01942-0.00655,0.03229-0.00655
			c0.00655,0,0.02597,0,0.02597,0c1.24486-0.11684,3.64384-0.53822,6.07523-2.13957
			c3.48186-2.30193,5.48541,0.30467,7.17108-0.92079c0.57706-0.42139,0.86899-0.8947,0.98547-1.38113
			c0.00665-0.02571,0.00665-0.05179,0-0.07764c-0.16843-1.06979-0.66782-2.0425-1.53644-2.80763
			c-1.0181-0.8947-0.3049-2.4702,1.06976-2.34705c4.36349,0.39554,8.62988,2.30179,12.52005,4.35704
			c0.55121,0.29192,0.33075,1.14113-0.2916,1.11528c-6.12735-0.2594-8.36414,2.58061-9.0061,3.69579
			c-0.12314,0.22046-0.00632,0.50571,0.23999,0.57704c6.81439,2.05537,12.44882-0.19449,14.16055-1.01797
			c0.25931-0.12315,0.57706,0.01942,0.60281,0.29825c0.70032,7.2554-4.39587,22.43382-11.63165,30.08478
			c-0.46689,0.49274-1.25784-0.09731-0.90137-0.6808c2.26273-3.70877,5.35559-10.21835,6.41895-19.31511
			c0.0325-0.32431-0.33063-0.55763-0.62897-0.38899c-0.74573,0.42783-1.77002,0.8623-2.6647,1.01787
			c-0.17511,0.02585-0.32434,0.12959-0.40198,0.29169c-3.54666,7.29424-13.11041,11.11972-22.20706,11.11972
			c-0.06479,0-0.12959-0.00644-0.19449-0.00644v-0.00655c-0.00644,0-0.00644,0-0.00644,0v0.00655h-0.00644
			c-0.00655,0-0.00655,0-0.00655,0v-0.00655c-0.00644,0-0.00644,0-0.00644,0v0.00655c-0.0649,0-0.12981,0.00644-0.19449,0.00644
			c-9.09676,0-18.66039-3.82549-22.21349-11.11972c-0.07777-0.16209-0.2269-0.26584-0.40198-0.29169
			c-0.88838-0.15556-1.91934-0.59004-2.66481-1.01787c-0.29181-0.16864-0.66138,0.06468-0.62254,0.38899
			c1.19305,10.20538,4.94075,17.1559,7.19716,20.547c0.25919,0.38889-0.28548,0.81039-0.63553,0.4863
			c-7.78043-7.22301-13.41486-23.51659-12.68236-31.12216c0.03252-0.27882,0.35016-0.4214,0.60957-0.29825
			c1.71175,0.82349,7.33974,3.07335,14.15401,1.01797c0.25308-0.07133,0.36957-0.35658,0.23997-0.57704
			c-0.6353-1.11517-2.87228-3.95518-8.99933-3.69579c-0.62898,0.02585-0.84955-0.82336-0.29192-1.11528
			c3.88383-2.05525,8.15012-3.9615,12.52003-4.35704c1.37468-0.12315,2.08133,1.45235,1.07001,2.34705
			c-0.86885,0.76514-1.37457,1.73784-1.54321,2.80763c-0.00644,0.02585-0.00644,0.05193,0,0.07764
			c0.11671,0.48643,0.40852,0.95975,0.98558,1.38113c1.68579,1.22546,3.68933-1.38113,7.17752,0.92079
			c2.43138,1.60135,4.83035,2.02274,6.06879,2.13957c0,0,0.01942,0,0.03252,0c0.00644,0,0.01941,0.00655,0.02585,0.00655V168.94505z
			 M261.21887,180.63528c0.36969-0.27228,0.07144-0.83624-0.3696-0.69366c-3.2807,1.04372-10.44536,2.67114-15.83334-0.71962
			v-0.01311c-0.00644,0-0.01288,0.00644-0.01288,0.00644c-0.00655,0-0.01299-0.00644-0.01299-0.00644v0.01311
			c-5.38799,3.39076-12.55276,1.76334-15.83336,0.71962c-0.44092-0.14258-0.73915,0.42139-0.37624,0.69366
			c1.68591,1.24475,4.13681,2.34705,6.96362,3.14468c2.82703,0.7975,6.03639,1.28369,9.24597,1.28369c0,0,0.00644,0,0.01299,0
			c0,0,0.00644,0,0.01288,0C251.42844,185.06366,257.84741,183.11859,261.21887,180.63528z"/>
	</g>
	<g>
		<path fill="#282828" d="M236.61295,149.35101c-0.46689,4.61656,0.23332,8.41595,0.83646,10.65927
			c0.12315,0.44115-0.49272,0.68091-0.7457,0.29846c-2.55464-3.90338-4.00699-9.44037-4.42172-11.10031
			c-0.05859-0.24631-0.35039-0.35648-0.58371-0.22688c-3.56609,1.92566-7.33308,2.84642-11.37891,3.05392
			c-0.33075,0.01276-0.42151-0.46045-0.10385-0.55765c2.14601-0.65494,4.19505-1.54311,6.16599-2.58061
			c0.50583-0.27226,0.32431-1.04384-0.25275-1.05679c-5.6149-0.12982-14.04395-0.52513-16.52713-0.64841
			c-0.18152-0.00655-0.22035-0.25298-0.05193-0.31764c3.20958-1.29036,8.89581-2.16566,10.56851-2.34729
			c0.31122-0.03229,0.43448-0.35648,0.26584-0.60933c-0.18796-0.27882-1.16698-0.81694-2.386-0.96617
			c-2.63231-0.31776-8.07878,0.4538-7.94908,0.38257c0.77156-0.44093,1.54955-0.84933,2.32776-1.21892
			c0.01299-0.00655,0.01941-0.01297,0.03239-0.01941c1.49129-1.19318,3.06679-2.28238,4.72008-3.23532
			c1.45889-1.05038,3.19017-1.9906,4.98602-2.37314c0.09087-0.03252,0.17508-0.06491,0.2594-0.09741
			c0.19449-0.07123,0.36314-0.07123,0.51237-0.02585c0.13591-0.01299,0.27859-0.03883,0.41473-0.04538
			c4.70088-0.27228,7.9362,2.76201,9.43393,4.57117c0.26595,0.31766,0.78453,0.07765,0.71985-0.32431
			c-1.75723-10.28326-7.99457-12.1377-13.14281-9.50516c-2.98247,1.52368-7.50815,5.24542-9.93964,7.3201
			c-0.33707,0.29179-0.84279-0.08432-0.62888-0.47333c1.87373-3.40385,5.82248-10.25085,8.04639-11.83934
			c4.63586-3.30679,7.50172-2.17852,10.01753-1.77654c8.87619,1.40053,10.46478,15.91779,10.59438,17.32465
			c-0.00644,0.07133-0.01942,0.14256-0.02586,0.21391c-0.36957,0.97902-0.67447,1.93864-0.92078,2.88527
			c-0.21391,0.78453-0.38255,1.56274-0.51859,2.31488C236.79446,147.82742,236.6843,148.59898,236.61295,149.35101z"/>
	</g>
	<g>
		<path fill="#FFFFFF" d="M261.21887,180.63528c0.36969-0.27228,0.07144-0.83624-0.3696-0.69366
			c-3.2807,1.04372-10.44536,2.67114-15.83334-0.71962v-0.01311c-0.00644,0-0.01288,0.00644-0.01288,0.00644
			c-0.00655,0-0.01299-0.00644-0.01299-0.00644v0.01311c-5.38799,3.39076-12.55276,1.76334-15.83336,0.71962
			c-0.44092-0.14258-0.73915,0.42139-0.37624,0.69366c1.68591,1.24475,4.13681,2.34705,6.96362,3.14468
			c2.82703,0.7975,6.03639,1.28369,9.24597,1.28369c0,0,0.00644,0,0.01299,0c0,0,0.00644,0,0.01288,0
			C251.42844,185.06366,257.84741,183.11859,261.21887,180.63528z"/>
	</g>
	<g>
		<path fill="#282828" d="M286.80392,287.39725c0-1.65994-1.3486-3.00214-3.00211-3.00214c-0.14902,0-0.2916,0.02585-0.42783,0.0455
			c0.72604-0.33728,1.53665-0.5318,2.39255-0.5318c3.16397,0,5.72516,2.56122,5.72516,5.72507
			c0,3.16409-2.56119,5.73172-5.72516,5.73172c-3.16412,0-5.72531-2.56763-5.72531-5.73172
			c0-1.11505,0.32431-2.15256,0.87531-3.03427c-0.07135,0.25275-0.12317,0.5188-0.12317,0.79764
			c0,1.65958,1.3486,3.00821,3.00845,3.00821C285.45532,290.40546,286.80392,289.05682,286.80392,287.39725z"/>
	</g>
	<g>
		<path fill="#282828" d="M280.79337,323.67374c-3.16409,0-5.72516-2.56097-5.72516-5.72507
			c0-0.89471,0.20758-1.73782,0.57706-2.48996c-0.013,0.11682-0.03885,0.23355-0.03885,0.36313
			c0,1.6535,1.3486,3.00214,3.00845,3.00214c1.65326,0,3.00186-1.34863,3.00186-3.00214c0-1.65982-1.3486-3.00842-3.00186-3.00842
			c-0.15558,0-0.29825,0.02609-0.44083,0.0455c0.78442-0.40198,1.6727-0.63541,2.61932-0.63541
			c3.16409,0,5.73172,2.56107,5.73172,5.72516S283.95746,323.67374,280.79337,323.67374z"/>
	</g>
	<g>
		<path fill="#282828" d="M275.82678,354.7959c-3.16388,0-5.73151-2.56119-5.73151-5.72507
			c0-0.81705,0.17496-1.58859,0.47964-2.29544c-0.02588,0.1622-0.04529,0.32431-0.04529,0.49295
			c0,1.65326,1.34207,3.00189,3.00189,3.00189c1.65994,0,3.00211-1.34863,3.00211-3.00189
			c0-1.65994-1.34216-3.00854-3.00211-3.00854c-0.40198,0-0.77798,0.0842-1.12802,0.22699
			c0.95294-0.71329,2.13312-1.14136,3.42328-1.14136c3.15765,0,5.72528,2.56131,5.72528,5.7254
			C281.55206,352.23471,278.98444,354.7959,275.82678,354.7959z"/>
	</g>
	<path fill="#CC9670" d="M195.84947,165.90411c-5.80307-6.02342-0.01299-8.77245-0.19449-12.21536
		c-0.18806-3.51427-4.75247-9.09021-6.0688-10.97061c-0.10373-0.14256-0.08432-0.30457,0-0.42783
		c0.01897-0.02776,0.04346-0.05226,0.0701-0.07472c-1.61005,2.21115,1.14565,19.0688,6.23349,23.80444
		C195.88853,165.97781,195.87691,165.93617,195.84947,165.90411z M190.02101,142.12833l1.21303,0.37048
		C190.81796,142.24731,190.41621,142.09988,190.02101,142.12833z"/>
	<path fill="#CC9670" d="M295.92007,163.63495c0,0,0.72946-1.1347,1.21564-2.10741c0.4863-0.97237,2.4314-6.72679,3.48514-11.83281
		c1.04733-5.07553-0.04086-7.53456-0.05383-7.5638c-1.31882,1.88321-6.06686,8.04514-6.25494,11.55782
		c-0.16199,2.96758,4.11075,5.42163,1.5834,9.89969C295.91003,163.61586,295.92007,163.63495,295.92007,163.63495z"/>
	<path fill="#B4B7B8" d="M336.47925,315.10223c0.29181,0.06491,0.55765,0.17508,0.81705,0.31122
		c4.52567-17.10397,12.88757-33.07697,17.13715-38.97781c-6.8338,6.72162-17.89572,24.39575-38.98096,53.02176l18.41388-13.79111
		C334.61206,315.1152,335.56512,314.90771,336.47925,315.10223z"/>
	<path fill="#B4B7B8" d="M220.30312,277.67151c-5.11348,1.74799-11.04749,2.89487-16.42227,3.22098
		c-2.30518,2.45972-22.35448,24.3316,5.61591,11.8775c29.60931-13.18365,35.2373-33.38275,35.2373-33.38275
		C238.71065,267.78354,230.30122,274.26099,220.30312,277.67151z"/>
	<path fill="#B4B7B8" d="M278.44101,288.66345c0,0-0.86469-4.97079,4.75473-6.48364
		c2.45383-0.66058,0.97903-3.52264-0.49838-5.20874c-0.07968,0-0.16006,0.00021-0.23434,0.00021
		c-3.138,0-9.46634-0.36313-16.54001-2.78152c-9.19089-3.13644-16.17392-8.21808-20.79814-14.63467l-0.39081-0.16785
		C244.73405,259.38724,247.96724,286.28613,278.44101,288.66345z"/>
	<path fill="#B4B7B8" d="M137.41751,277.82254c-0.53517-1.0209-0.99991-1.83514-1.37344-2.40622
		C136.48747,276.19769,136.94815,277.00369,137.41751,277.82254z M198.42026,350.85382
		c-16.59125-1.08456-25.44858-7.94263-35.92668-28.16794c-10.614-20.48749-18.9996-34.263-25.07607-44.86334
		c5.20715,9.93243,17.11502,39.47198,17.4644,55.95294c0.85904,0.13174,3.40488,0.10306,5.806,3.06567l0,0
		c0.09854,0.12146,0.19687,0.24799,0.29462,0.37985l0.00125,0.0018c0.09753,0.13138,0.19426,0.26718,0.29044,0.40817
		c0.006,0.00903,0.01198,0.01886,0.01819,0.02777c0.09074,0.13412,0.18106,0.27182,0.2708,0.41565
		c0.01129,0.01782,0.02223,0.03748,0.03352,0.05576c0.08432,0.13614,0.1682,0.27533,0.25139,0.42059
		c0.02382,0.04166,0.04707,0.0867,0.07089,0.12903c0.07022,0.12573,0.14053,0.2515,0.21008,0.38391
		c0.03543,0.06772,0.07031,0.14066,0.10555,0.21008c0.05734,0.11276,0.11456,0.2236,0.17101,0.34113
		c0.04933,0.10272,0.09764,0.21201,0.1463,0.31833c0.04143,0.09088,0.08353,0.17847,0.12451,0.27194
		c0.08963,0.20374,0.17767,0.41403,0.26459,0.6311c0.08636,0.21518,0.17294,0.45099,0.25908,0.70114
		c0.07765,0.22586,0.15465,0.46869,0.23129,0.72211c0.00665,0.022,0.01343,0.0412,0.0202,0.06342
		c0.16628,0.55563,0.32916,1.17377,0.4854,1.84518c1.02272,4.39713,1.74098,11.17404,1.04654,18.52493
		c-0.47333,4.94717,4.72018,8.51328,9.15521,6.2764c0.66985-0.33832,1.34015-0.66522,2.01282-0.98672
		c0.19269-0.0921,0.3864-0.18228,0.57965-0.27295c0.64998-0.3049,1.30153-0.60516,1.96167-0.89301
		c0.02969-0.01276,0.05972-0.02493,0.0894-0.03802c0.74423-0.3233,1.49706-0.63577,2.26251-0.93561
		c0.01489-0.00574,0.02969-0.01193,0.04448-0.01782c0.77257-0.30206,1.5589-0.59082,2.36139-0.86749
		c5.01898-1.73071,10.71707-2.94397,18.18561-3.40588h0.09074c0.32433-0.00632,38.87665,0.37622,59.5601,1.62109
		c7.76093,0.46664,12.8895-0.34372,17.45438-1.24487c4.29202-0.84311,8.07224-3.93564,8.66205-8.27338
		c0.16388-1.2092,0.32837-2.40091,0.49295-3.58426C284.00613,361.38992,262.06943,355.01422,198.42026,350.85382z"/>
	<path fill="#CC9670" d="M366.91476,413.84467c-0.13614,0.0238-0.26541,0.0386-0.40256,0.06387
		C366.51221,413.90854,366.65863,413.88925,366.91476,413.84467z M398.69424,417.68854
		c-5.83524-23.76956-26.07654-35.65869-35.31598-40.84552c-3.60977-2.02435-15.15134-8.38232-33.02008-12.23367
		c12.32611,4.39893,29.83237,12.17947,40.8548,29.03723c10.58817,16.19391-1.49323,19.95856-4.29822,20.19809
		c31.52991-2.6918,30.60303,8.01385,33.35724,12.58652C400.05414,423.55765,399.36353,420.41577,398.69424,417.68854z"/>
	<path fill="#B4B7B8" d="M156.84641,377.11292L156.84641,377.11292c0,0-17.21019-2.91736-42.90485,5.34915
		c-13.66714,4.39722-19.42213,11.17267-24.77264,12.31921c-6.80795,1.45889-10.17704-0.13861-12.15711-6.92841
		c0.01038,0.58813,0.02415,1.17105,0.04504,1.74146c0.47852,13.25592,4.59579,20.27618,8.07021,22.46521
		c0.04391-0.04526,0.09098-0.08569,0.13196-0.13513c2.39265-2.87228,5.3039-6.06223,8.72729-9.31067
		c10.41929-9.88138,27.8023-22.21991,51.47456-24.88474C149.26691,377.30109,153.047,377.09348,156.84641,377.11292z"/>
	<path fill="#B4B7B8" d="M402.68002,399.68512c3.4726-2.31882,7.56006-9.17361,8.44339-21.96027
		c0.0394-0.5694,0.07269-1.15131,0.10239-1.73874c-2.20236,6.72079-5.62201,8.20657-12.37848,6.52451
		c-5.30991-1.32199-10.83878-8.28323-24.35385-13.12735c-9.64041-3.45532-18.10864-5.25943-24.91171-6.17038
		c-0.0849,0.07507-0.1655,0.15082-0.25162,0.22586c3.46875,1.16721,6.99612,2.4639,10.52313,3.90326
		C381.78973,376.31357,396.05313,386.65137,402.68002,399.68512z"/>
	<path fill="#B4B7B8" d="M313.49445,109.31383c0.1684,0.04527,0.16199,0.28526-0.013,0.31765
		c-4.5452,0.8754-9.13559,0.34373-12.78607-2.08765c-0.10376-0.07134-0.25275,0-0.25275,0.12959l-0.17508,15.58705
		c0,0.07123,0.04944,0.16785,0.12314,0.16199c6.68695-0.52716,11.53265-2.86823,13.49487-5.17409
		C318.20807,113.16956,313.49445,109.31383,313.49445,109.31383z M178.06584,69.80787
		c7.25157,7.46515,17.01717,12.54723,27.29861,14.91957c15.72961,3.62442,13.81694,0.21391,13.16866-0.21413
		c-1.25153-0.81039-17.71364-16.55943-18.37503-33.2876C198.74457,83.88444,181.0771,70.78633,178.06584,69.80787z
		 M177.56871,69.63324c9.66714,27.543-3.27733,18.63646-6.17761,18.00533c6.87883,6.26372,18.16043,7.04048,25.82347,5.23875
		C200.46275,92.11244,183.77374,87.31211,177.56871,69.63324z M276.82001,81.07479
		c-21.33377-2.89104-19.91336-26.6385-33.17538-18.26261c-24.63831,15.56099-43.48654-11.58648-43.48654-11.58648
		c0.03252,0,6.54211,14.9776,17.89528,22.40143c16.8317,11.00944,33.52104,11.69678,29.23534-6.34761
		c-0.04549-0.18818,0.21391-0.29169,0.30467-0.11661c3.94864,7.45634,15.27571,15.52214,27.02443,19.59381
		c8.79187,3.05392,9.90714,1.58849,19.34738,6.49684c2.68097,1.39207,5.09518,3.44473,7.33725,5.62652
		C296.57626,92.56872,299.9455,84.20863,276.82001,81.07479z M186.15309,100.85247
		c-6.31522-2.29522-12.40987-7.80637-15.50917-13.4084c0,0,7.74995,10.63365,4.92113,14.27073
		c-1.89102,2.43138,12.77626,12.33897,14.60158,12.81206c0.10374,0.02585,0.20726-0.04549,0.20726-0.15566
		C190.40662,112.76962,190.41937,102.40214,186.15309,100.85247z"/>
	<path fill="#CC9670" d="M251.59212,429.27536c-0.12303,0.18909-0.26685,0.36981-0.43245,0.53766
		C251.32584,429.64551,251.46909,429.46445,251.59212,429.27536z M251.59473,429.27118
		c-0.00102,0.00137-0.00182,0.00284-0.00182,0.00284s0.00215-0.00204,0.00362-0.00406L251.59473,429.27118z M250.91629,425.61819
		c-0.00485-0.00247-7.15247-6.50427-18.81064-14.35742l-0.78012-0.27002c0,0,14.51353,9.12759-4.86287,13.61591
		c-38.25409,8.86118-77.48112,1.29669-90.44862,0.64841c-12.96749-0.64841-24.02761,2.43802-27.23179,1.94507
		c-8.42894-1.29678-4.86523-12.51709,5.02486-19.28915c10.96835-7.51041,46.84513-5.83545,46.84513-5.83545
		s-25.09006-2.89816-21.72052-10.53613c2.43149-5.51114,14.25662-7.07614,20.79523-7.32471
		c-4.32285-0.15759-8.67796-0.00961-13.03749,0.51678c-20.59237,2.48328-36.29603,14.15411-46.68303,25.39697
		c-5.07012,5.47876-10.84102,15.65173-7.98148,22.55045c0.28514,0.68079,0.5704,1.24496,0.84922,1.65338
		c3.35216,4.87598,13.4346,2.93066,18.8288,2.63242c0.7457-0.03894,1.47842,0.17499,2.08156,0.60947
		c0,0,26.22781,11.94095,62.75322,9.56363c35.94373-2.33948,65.17218-10.81573,75.05698-17.86661
		C252.38062,428.05896,252.25711,426.49066,250.91629,425.61819z"/>
	<path fill="#CC9670" d="M383.82739,440.49307l0.00281-0.00055l0.00012-0.00058L383.82739,440.49307z M383.82739,440.49307
		c-0.42783,0.05215-0.84753,0.19992-1.22342,0.41461C383.40576,440.66534,383.81158,440.49973,383.82739,440.49307z
		 M310.85986,430.22607c-7.02118-2.06012-16.10889-5.48462-22.69876-8.87201c-7.12662-3.66348-4.7493-6.47314,1.64008-6.12839
		c35.80905,1.93164,75.30634-1.42526,75.30634-1.42526s-63.10904-2.48557-96.17618-12.85959
		c-16.81589-5.27545-35.05399-10.63397-48.92206-14.62756c-15.74565-5.92981-32.57407-9.55426-51.43042-8.50693v0.00024
		c37.8327,4.19528,72.85147,26.9209,95.28552,41.48996c1.98877,1.29092,4.01151,2.58423,6.06042,3.87201
		c12.9841,7.29446,45.29257,19.12106,63.52014,21.86194c21.55844,3.242,37.05801,0.50934,48.91824-3.96228
		c-0.05847,0.03961-0.12158,0.07382-0.17645,0.11752c0.13016-0.10318,0.27094-0.19452,0.41724-0.27805
		C372.23953,441.03207,346.95282,440.81613,310.85986,430.22607z"/>
	<path fill="#B4B7B8" d="M204.78717,96.62132c-1.95049,0.60291-3.73653,1.26247-5.32986,1.9786l0.31383,15.86643L204.78717,96.62132
		z"/>
	<path fill="#B4B7B8" d="M290.81927,98.64496c-1.42471-0.64569-3.00427-1.24589-4.72043-1.79991l5.0936,18.2697L290.81927,98.64496z
		"/>
	<path fill="#B4B7B8" d="M92.04177,342.04233c2.57383-1.0199,5.23876-1.98593,8.00665-2.88245
		c1.24069-35.73941,20.94502-68.21857,20.94502-68.21857C99.74702,291.61353,93.25018,332.87344,92.04177,342.04233z"/>
	<path fill="#B4B7B8" d="M371.26706,273.75085c0,0,13.99304,26.60043,16.86206,58.55942
		c2.65656,0.96448,5.32355,2.10312,7.94626,3.44675C393.34393,320.39935,385.58676,289.54483,371.26706,273.75085z"/>
	<path fill="#B4B7B8" d="M292.64062,358.81689c0.02664-0.00055,0.05283-0.00101,0.08026-0.00238
		c15.76144-67.12515,24.51471-87.22491,24.51471-87.22491l-7.60593-2.78809c-3.98871,13.09146-12.80008,45.28003-17.88184,88.80359
		L292.64062,358.81689z"/>
</g>
</svg>
